<svg width="56" height="45" viewBox="0 0 56 45" fill="none" xmlns="http://www.w3.org/2000/svg">
<path d="M15.6122 20.625H11.9387V16.875H15.6122V20.625ZM15.6122 11.25H11.9387V15H15.6122V11.25ZM21.1224 28.125H17.449V31.875H21.1224V28.125ZM21.1224 11.25H17.449V15H21.1224V11.25ZM21.1224 22.5H17.449V26.25H21.1224V22.5ZM21.1224 5.625H17.449V9.375H21.1224V5.625ZM21.1224 16.875H17.449V20.625H21.1224V16.875ZM15.6122 5.625H11.9387V9.375H15.6122V5.625ZM10.102 16.875H6.42858V20.625H10.102V16.875ZM10.102 28.125H6.42858V31.875H10.102V28.125ZM10.102 22.5H6.42858V26.25H10.102V22.5ZM24.9796 3.75V43.125H27.551V45H24.9796H18.3673H9.18368H2.57142H0V43.125H2.57142V3.75H0V1.875H2.57142H5.14286V0H22.4082V1.875H24.9796H27.551V3.75H24.9796ZM16.5306 38.4375C16.5306 36.8868 15.2945 35.625 13.7755 35.625C12.2565 35.625 11.0204 36.8868 11.0204 38.4375V43.125H16.5306V38.4375ZM23.1428 3.75H4.40817V43.125H9.18368V38.4375C9.18368 35.8518 11.2436 33.75 13.7755 33.75C16.3074 33.75 18.3673 35.8518 18.3673 38.4375V43.125H23.1428V3.75ZM15.6122 28.125H11.9387V31.875H15.6122V28.125ZM15.6122 22.5H11.9387V26.25H15.6122V22.5ZM10.102 11.25H6.42858V15H10.102V11.25ZM10.102 5.625H6.42858V9.375H10.102V5.625Z" fill="white"/>
<path d="M48.5574 7.05981C48.572 7.09643 48.5793 7.14404 48.5793 7.20263C48.5793 7.26123 48.5647 7.33081 48.5354 7.41137C48.5134 7.49195 48.4731 7.62377 48.4146 7.80688C48.356 7.98266 48.2241 8.25366 48.019 8.61987C47.814 8.97876 47.5467 9.40723 47.217 9.90527C46.8947 10.4033 46.5139 10.9636 46.0745 11.5861C45.6351 12.2014 45.1552 12.8569 44.6353 13.5528C44.1226 14.2486 43.5733 14.9699 42.9873 15.717C42.4087 16.4641 41.8117 17.2185 41.1965 17.9802C40.53 18.7932 39.9844 19.4488 39.5596 19.9468C39.1348 20.4375 38.8492 20.7854 38.7026 20.9905C38.6074 21.1296 38.5049 21.2505 38.395 21.3531C38.2851 21.4555 38.168 21.5068 38.0434 21.5068C37.9775 21.5068 37.908 21.4885 37.8348 21.4519C37.7615 21.4153 37.6883 21.3531 37.6149 21.2651C37.5638 21.1993 37.5198 21.093 37.4832 20.9465C37.4465 20.8 37.4173 20.6206 37.3952 20.4082C37.3733 20.1958 37.3549 19.9541 37.3403 19.6831C37.333 19.4121 37.3293 19.1227 37.3293 18.8152C37.3293 18.2146 37.344 17.5664 37.3733 16.8706C37.4025 16.1748 37.4392 15.4936 37.4832 14.8272C37.5125 14.3291 37.5417 13.8017 37.5711 13.2451C37.6003 12.6884 37.6297 12.1428 37.6589 11.6082C37.6883 11.0662 37.7138 10.5535 37.7359 10.0701C37.7651 9.57934 37.7945 9.15454 37.8237 8.79565L35.8681 11.6082C35.6997 11.8498 35.48 12.1758 35.209 12.5859C34.9453 12.9961 34.656 13.4428 34.3411 13.9263C34.0261 14.4097 33.7002 14.9114 33.3632 15.4314C33.0264 15.9441 32.7114 16.4312 32.4185 16.8925C32.1255 17.354 31.8655 17.7678 31.6384 18.134C31.4113 18.493 31.2465 18.7566 31.144 18.9251C30.7779 19.555 30.4336 20.1116 30.1113 20.5949C29.7818 21.0783 29.5473 21.4739 29.4082 21.7815C29.3716 21.862 29.346 21.917 29.3313 21.9463C29.3166 21.9829 29.2984 22.0012 29.2763 22.0012C29.2544 22.0012 29.2251 21.9903 29.1885 21.9682C29.1445 21.9536 29.0823 21.9352 29.0017 21.9133C28.8333 21.8841 28.738 21.8438 28.7161 21.7925C28.6941 21.7485 28.6685 21.6936 28.6391 21.6277C28.6172 21.5911 28.5842 21.5728 28.5402 21.5728C28.4964 21.5728 28.4634 21.5728 28.4414 21.5728C28.3755 21.5728 28.3242 21.5544 28.2876 21.5179C28.251 21.4812 28.2216 21.4336 28.1997 21.375C28.1778 21.3237 28.1631 21.2688 28.1557 21.2102C28.1411 21.1516 28.1302 21.1004 28.1227 21.0564C28.2693 20.6756 28.478 20.2398 28.749 19.749C29.0127 19.2583 29.3203 18.7382 29.6719 18.189C30.0161 17.6323 30.3933 17.0538 30.8035 16.4531C31.221 15.8525 31.6458 15.252 32.0779 14.6513C32.5173 14.0508 32.9568 13.4649 33.3962 12.8935C33.8357 12.3149 34.2605 11.7729 34.6707 11.2675C35.2858 10.5059 35.8095 9.85034 36.2417 9.30103C36.6739 8.75171 37.029 8.29395 37.3074 7.92774C37.593 7.56152 37.8127 7.27954 37.9665 7.08178C38.1204 6.88403 38.2229 6.75219 38.2742 6.68628C38.3107 6.63501 38.3401 6.59106 38.3621 6.55444C38.384 6.5105 38.4133 6.47753 38.4499 6.45556C38.4866 6.38965 38.5195 6.33472 38.5488 6.29077C38.5855 6.24682 38.6147 6.20654 38.6368 6.16993C38.688 6.104 38.7685 6.07104 38.8784 6.07104C38.915 6.07104 38.9517 6.07836 38.9882 6.09302C39.0249 6.10767 39.0506 6.1333 39.0652 6.16993C39.1092 6.30175 39.1457 6.36768 39.1751 6.36768C39.197 6.36768 39.2227 6.33105 39.2519 6.25781C39.2813 6.18457 39.3362 6.12964 39.4167 6.09302C39.4607 6.07836 39.4937 6.07104 39.5156 6.07104C39.5376 6.06371 39.5523 6.05639 39.5596 6.04907C39.5742 6.03442 39.5852 6.01977 39.5926 6.00512C39.6072 5.98315 39.6328 5.94653 39.6694 5.89526C39.7207 5.82202 39.7793 5.7854 39.8452 5.7854C39.8891 5.7854 39.9294 5.8147 39.9661 5.87329C40.0101 5.92456 40.032 6.02344 40.032 6.16993C40.0247 6.24316 40.0174 6.39697 40.0101 6.63134C40.0101 6.86572 40.0026 7.15503 39.988 7.49927C39.9807 7.83617 39.9697 8.21337 39.955 8.63086C39.9404 9.04101 39.9221 9.46216 39.9001 9.89428C39.8855 10.3191 39.8635 10.7366 39.8342 11.1467C39.8123 11.5496 39.7866 11.9158 39.7573 12.2454C39.7207 12.6629 39.6988 13.1169 39.6913 13.6077C39.684 14.0984 39.6767 14.5928 39.6694 15.0909C39.6694 15.5816 39.6658 16.054 39.6585 16.508C39.6585 16.9622 39.6475 17.354 39.6255 17.6836C39.7866 17.4638 39.988 17.1855 40.2298 16.8487C40.4787 16.5117 40.7461 16.1455 41.0318 15.75C41.3247 15.3544 41.625 14.9444 41.9326 14.5195C42.2403 14.0874 42.5405 13.6663 42.8335 13.2561C43.1337 12.8459 43.4121 12.4614 43.6684 12.1025C43.9321 11.7363 44.1592 11.4213 44.3496 11.1577C44.6792 10.7036 45.0161 10.2385 45.3603 9.76244C45.7119 9.27905 46.0305 8.83227 46.3161 8.42212C46.6018 8.01196 46.8398 7.66039 47.0303 7.36743C47.2281 7.07446 47.3452 6.88403 47.3818 6.79615C47.4624 6.62769 47.5429 6.52881 47.6235 6.49951C47.704 6.47021 47.7883 6.45556 47.8762 6.45556C47.9421 6.45556 47.9751 6.5105 47.9751 6.62036C47.9751 6.66431 47.9824 6.68628 47.9971 6.68628C48.019 6.68628 48.0593 6.66064 48.1179 6.60937C48.1765 6.55078 48.2241 6.52149 48.2607 6.52149C48.3047 6.52149 48.345 6.53614 48.3816 6.56543C48.4182 6.59473 48.4549 6.65698 48.4914 6.75219C48.4914 6.78882 48.4914 6.82544 48.4914 6.86206C48.4987 6.89868 48.5098 6.93164 48.5244 6.96094C48.5317 6.99755 48.5427 7.03052 48.5574 7.05981Z" fill="white"/>
<path d="M45.8767 18.8965C45.8913 18.9917 45.9097 19.0869 45.9316 19.1822C45.9537 19.2773 45.9646 19.3873 45.9646 19.5118C45.9646 19.6802 45.9133 19.8816 45.8108 20.116C45.7742 20.1745 45.6863 20.3028 45.5471 20.5006C45.4079 20.6982 45.2358 20.94 45.0307 21.2256C44.8257 21.5113 44.5913 21.8299 44.3276 22.1814C44.0713 22.5257 43.8039 22.8808 43.5257 23.2471C43.2547 23.606 42.98 23.9649 42.7016 24.3238C42.4306 24.6753 42.1779 24.9976 41.9436 25.2906C42.654 25.21 43.533 25.1185 44.5804 25.0159C45.6276 24.9061 46.7812 24.8181 48.041 24.7523C48.2754 24.408 48.5574 24.0125 48.887 23.5657C49.2165 23.1189 49.5608 22.6575 49.9196 22.1814C50.2859 21.698 50.6521 21.2256 51.0183 20.7641C51.3918 20.2955 51.7325 19.878 52.04 19.5118C52.355 19.1382 52.6223 18.8306 52.842 18.5888C53.0618 18.3472 53.2082 18.2117 53.2815 18.1824C53.3694 18.1384 53.4427 18.1165 53.5012 18.1165C53.5965 18.1165 53.6697 18.1714 53.721 18.2813C53.7795 18.3838 53.8638 18.5596 53.9737 18.8087C54.0322 18.9477 54.0762 19.0576 54.1055 19.1382C54.1421 19.2114 54.1604 19.2884 54.1604 19.3689C54.1604 19.4275 54.1494 19.4861 54.1275 19.5446C54.1055 19.6033 54.0688 19.6765 54.0175 19.7645C53.9737 19.845 53.9151 19.9402 53.8418 20.0501C53.7686 20.1599 53.677 20.2955 53.5671 20.4566C53.5086 20.5371 53.406 20.6763 53.2595 20.8741C53.1131 21.0645 52.9372 21.2915 52.7321 21.5552C52.5345 21.8115 52.3184 22.0898 52.084 22.3901C51.8496 22.6905 51.6152 22.987 51.3809 23.2801C51.1539 23.573 50.9378 23.8514 50.7327 24.115C50.5276 24.3787 50.3555 24.6057 50.2163 24.7961C50.3116 24.8328 50.3811 24.884 50.4251 24.9499C50.4763 25.0085 50.5203 25.0782 50.5569 25.1587C50.5862 25.2393 50.6154 25.3088 50.6448 25.3674C50.6741 25.426 50.6997 25.4809 50.7216 25.5322C50.751 25.5762 50.7729 25.6274 50.7876 25.686C50.8023 25.7373 50.8096 25.7995 50.8096 25.8728C50.8096 25.9534 50.8205 26.0194 50.8426 26.0705C50.8645 26.1145 50.8755 26.1548 50.8755 26.1914C50.8755 26.228 50.8572 26.2647 50.8205 26.3013C50.7913 26.3305 50.7254 26.3745 50.6228 26.4331C50.4763 26.5064 50.2639 26.5577 49.9856 26.5869C49.7072 26.6089 49.4107 26.6272 49.0957 26.6418C48.8687 26.9861 48.616 27.3597 48.3377 27.7624C48.0666 28.1653 47.781 28.5828 47.4807 29.0149C47.1878 29.4397 46.8911 29.8718 46.5909 30.3113C46.2978 30.7435 46.0159 31.1645 45.7449 31.5747C45.4812 31.9776 45.2358 32.3584 45.0088 32.7173C44.7891 33.0761 44.6059 33.3911 44.4594 33.6622C44.4156 33.75 44.3826 33.8159 44.3606 33.8599C44.3386 33.9111 44.3167 33.9514 44.2946 33.9808C44.2727 34.01 44.2434 34.0321 44.2068 34.0467C44.1702 34.0613 44.1189 34.0832 44.053 34.1126L43.8773 34.2005C43.8625 34.2005 43.8443 34.1894 43.8222 34.1675C43.8076 34.1529 43.7711 34.1272 43.7124 34.0906C43.6025 34.01 43.5 33.9111 43.4048 33.794C43.3096 33.6841 43.2547 33.556 43.2399 33.4095C43.2253 33.3509 43.218 33.296 43.218 33.2447C43.218 33.1934 43.218 33.1385 43.218 33.0799C43.218 32.8162 43.2547 32.5672 43.3279 32.3327C43.4012 32.0984 43.4927 31.8677 43.6025 31.6406C43.7198 31.4136 43.8479 31.1829 43.9871 30.9485C44.1262 30.7141 44.2618 30.4614 44.3935 30.1904C44.5034 29.978 44.6462 29.7364 44.822 29.4653C44.9978 29.1943 45.1919 28.9051 45.4043 28.5974C45.624 28.2898 45.8511 27.9712 46.0854 27.6416C46.3272 27.312 46.5652 26.9861 46.7996 26.6639C46.4334 26.6858 45.9756 26.7225 45.4263 26.7737C44.8769 26.825 44.3021 26.8836 43.7014 26.9495C43.1008 27.0081 42.5113 27.0666 41.9326 27.1252C41.354 27.1838 40.8524 27.2314 40.4274 27.2681C40.1712 27.6416 39.8928 28.0555 39.5926 28.5095C39.2922 28.9563 38.9882 29.4104 38.6807 29.8718C38.3731 30.3333 38.0727 30.7873 37.7798 31.2342C37.4868 31.6736 37.2195 32.0728 36.9777 32.4316C36.7434 32.7832 36.542 33.0799 36.3735 33.3215C36.2124 33.556 36.1099 33.6987 36.0659 33.75C35.9781 33.8379 35.9195 33.9002 35.8901 33.9368C35.8535 33.9808 35.8243 34.01 35.8022 34.0246C35.7803 34.0394 35.7546 34.0467 35.7254 34.0467C35.696 34.054 35.6374 34.0686 35.5496 34.0906C35.5056 34.1053 35.469 34.1126 35.4398 34.1126C35.4031 34.1126 35.3664 34.1126 35.3298 34.1126C35.2493 34.1126 35.1907 34.0943 35.154 34.0576C35.1174 34.021 35.0772 33.9551 35.0332 33.8599C34.9893 33.7646 34.9307 33.6731 34.8575 33.5852C34.7769 33.4973 34.7366 33.3582 34.7366 33.1677C34.7366 33.0945 34.7439 33.0139 34.7586 32.9261C34.7732 32.8382 34.7988 32.7393 34.8354 32.6294C34.8721 32.5122 34.949 32.3438 35.0661 32.1241C35.1761 31.9043 35.3152 31.6517 35.4836 31.366C35.6522 31.0804 35.8389 30.7691 36.044 30.4322C36.2564 30.0952 36.4761 29.751 36.7031 29.3994C36.9302 29.0479 37.1572 28.6963 37.3843 28.3447C37.6113 27.9932 37.8311 27.6562 38.0435 27.334C37.9775 27.3194 37.9153 27.312 37.8567 27.312C37.8054 27.312 37.7505 27.312 37.6919 27.312C37.6113 27.312 37.5381 27.3157 37.4722 27.323C37.4063 27.323 37.3514 27.334 37.3074 27.356C37.2488 27.3779 37.1976 27.3962 37.1536 27.4109C37.1096 27.4256 37.0693 27.4329 37.0328 27.4329C36.9448 27.4329 36.8789 27.4036 36.835 27.3449C36.791 27.279 36.7434 27.1949 36.6921 27.0923C36.6555 27.0117 36.6006 26.9128 36.5274 26.7957C36.4615 26.6712 36.4285 26.5759 36.4285 26.5101C36.4285 26.4734 36.4431 26.4258 36.4724 26.3672C36.5018 26.3086 36.5677 26.228 36.6702 26.1256C36.7947 26.0816 36.9485 26.0376 37.1316 25.9937C37.322 25.9424 37.5271 25.8984 37.7468 25.8619C37.9739 25.8179 38.2119 25.7776 38.4609 25.741C38.71 25.7044 38.9627 25.6678 39.219 25.6311C39.5267 25.2063 39.8818 24.7375 40.2847 24.2249C40.6875 23.7122 41.105 23.1921 41.5371 22.6648C41.9693 22.1374 42.3977 21.6248 42.8226 21.1267C43.2474 20.6287 43.6319 20.1856 43.976 19.7974C44.3276 19.4092 44.6243 19.0943 44.866 18.8525C45.1077 18.6036 45.2579 18.468 45.3164 18.4461C45.3311 18.4461 45.3457 18.4424 45.3603 18.4351C45.3823 18.4277 45.4043 18.4241 45.4263 18.4241C45.5289 18.4241 45.624 18.4717 45.7119 18.5669C45.8071 18.6548 45.8621 18.7647 45.8767 18.8965Z" fill="white"/>
</svg>
