<svg width="128" height="60" viewBox="0 0 128 60" fill="none" xmlns="http://www.w3.org/2000/svg">
<path d="M52.3006 5.93308C52.3167 6.07732 52.3248 6.3779 52.3248 6.83478C52.3248 7.28357 52.3167 7.83657 52.3006 8.49376C52.2925 9.15106 52.2765 9.88438 52.2523 10.6938C52.2363 11.5034 52.2122 12.3449 52.18 13.2185C52.1478 14.0841 52.1116 14.9578 52.0714 15.8393C52.0393 16.713 52.0031 17.5425 51.9629 18.3279C51.9227 19.1134 51.8784 19.8307 51.8302 20.4798C51.782 21.1211 51.7337 21.6421 51.6855 22.0428C51.6855 22.0909 51.6614 22.135 51.6131 22.175C51.5729 22.2071 51.5287 22.2672 51.4804 22.3553C51.4322 22.4355 51.3839 22.4796 51.3357 22.4876C51.2875 22.4956 51.2473 22.4956 51.2151 22.4876C51.1829 22.4796 51.1588 22.4796 51.1427 22.4876C51.1266 22.4956 51.1266 22.5357 51.1427 22.6078C51.1588 22.6559 51.1307 22.696 51.0582 22.7281C50.9939 22.7521 50.9377 22.744 50.8894 22.7039C50.8251 22.6559 50.7487 22.5998 50.6603 22.5357C50.5718 22.4635 50.5155 22.4275 50.4914 22.4275C50.4432 22.4195 50.4271 22.4395 50.4432 22.4876C50.4593 22.5357 50.4793 22.5877 50.5034 22.6439C50.5357 22.7 50.5557 22.7521 50.5638 22.8002C50.5798 22.8563 50.5557 22.8883 50.4914 22.8964C50.3707 22.9123 50.23 22.8844 50.0693 22.8122C49.9164 22.7401 49.7718 22.6559 49.635 22.5598C49.5225 22.4715 49.3536 22.2752 49.1284 21.9706C48.9034 21.6661 48.6339 21.2814 48.3203 20.8165C48.0148 20.3436 47.673 19.8067 47.2952 19.2055C46.9252 18.6045 46.5393 17.9632 46.1373 17.282C45.7352 16.6007 45.3251 15.8954 44.907 15.1661C44.4889 14.4368 44.0828 13.7114 43.6887 12.9901C43.2948 12.2607 42.9168 11.5514 42.555 10.8621C42.1932 10.1729 41.8675 9.5317 41.578 8.93862C41.5459 9.27525 41.5177 9.73606 41.4936 10.3212C41.4695 10.8982 41.4453 11.5435 41.4212 12.2567C41.4052 12.962 41.3891 13.7074 41.373 14.4928C41.3569 15.2783 41.3408 16.0517 41.3248 16.8131C41.3167 17.5745 41.3087 18.2958 41.3007 18.9771C41.2926 19.6584 41.2846 20.2435 41.2765 20.7324C41.2765 21.0529 41.2684 21.2814 41.2523 21.4176C41.2443 21.5458 41.2323 21.634 41.2162 21.6821C41.2082 21.7302 41.1961 21.7663 41.18 21.7903C41.1719 21.8063 41.1719 21.8625 41.18 21.9586C41.18 22.2151 41.1639 22.4515 41.1318 22.6679C41.0996 22.8763 41.0273 22.9925 40.9146 23.0165C40.8503 23.0486 40.79 23.0366 40.7337 22.9805C40.6775 22.9324 40.6051 22.9204 40.5166 22.9444C40.4925 22.9444 40.4603 22.9644 40.4201 23.0045C40.388 23.0527 40.3277 23.0767 40.2392 23.0767C40.1668 23.0767 40.0784 23.0446 39.9739 22.9805C39.8693 22.9164 39.801 22.8002 39.7689 22.6318L39.7205 22.187C39.7125 22.1389 39.7005 22.1069 39.6844 22.0909C39.6764 22.0748 39.6643 22.0508 39.6482 22.0187C39.6402 21.9867 39.6321 21.9346 39.6241 21.8625C39.616 21.7823 39.608 21.65 39.6 21.4657C39.6 21.4176 39.608 21.1932 39.6241 20.7924C39.6402 20.3837 39.6603 19.8588 39.6844 19.2176C39.7166 18.5764 39.7487 17.847 39.7809 17.0295C39.8211 16.2121 39.8613 15.3665 39.9015 14.4928C39.9498 13.6192 39.9939 12.7496 40.0341 11.884C40.0824 11.0184 40.1307 10.217 40.1789 9.4796C40.2352 8.74224 40.2875 8.1011 40.3357 7.55608C40.3839 7.00309 40.4282 6.61033 40.4684 6.3779C40.4282 6.28168 40.396 6.1896 40.3719 6.10136C40.3558 6.01323 40.3478 5.93308 40.3478 5.86095C40.3398 5.81286 40.3437 5.7808 40.3598 5.76477C40.3839 5.74875 40.4121 5.73672 40.4443 5.72871C40.4844 5.71268 40.5246 5.69665 40.5648 5.68062C40.6051 5.66459 40.6453 5.63253 40.6855 5.58444C40.7016 5.56039 40.7136 5.5043 40.7216 5.41613C40.7378 5.31995 40.7659 5.27187 40.8061 5.27187C40.9187 5.27187 41.0112 5.24782 41.0835 5.19973C41.1559 5.14363 41.2564 5.10757 41.385 5.09153C41.385 4.95528 41.4212 4.86713 41.4936 4.82705C41.5257 4.803 41.5619 4.79499 41.6021 4.803C41.7389 4.81904 41.8434 4.87513 41.9157 4.97131C41.9962 5.05948 42.0564 5.14363 42.0966 5.22378C42.1369 5.31995 42.1691 5.39209 42.1932 5.44017C42.2173 5.48826 42.2494 5.5564 42.2896 5.64455C42.3459 5.73271 42.4545 5.92107 42.6153 6.20959C42.7841 6.49815 42.9892 6.85881 43.2305 7.29155C43.4716 7.7244 43.745 8.21328 44.0507 8.7583C44.3562 9.29524 44.6738 9.86833 45.0035 10.4775C45.3412 11.0786 45.6869 11.6957 46.0407 12.3289C46.3946 12.954 46.7403 13.5671 47.078 14.1683C47.4157 14.7694 47.7373 15.3424 48.043 15.8875C48.3485 16.4324 48.6259 16.9253 48.8752 17.3661C49.1245 17.799 49.3335 18.1637 49.5023 18.4602C49.6712 18.7487 49.7878 18.941 49.8521 19.0372C50.013 19.2696 50.1255 19.4019 50.1898 19.4339C50.2542 19.4581 50.3306 19.3818 50.4191 19.2055C50.4593 19.1254 50.4954 18.941 50.5276 18.6525C50.5678 18.356 50.6039 17.9833 50.6361 17.5344C50.6764 17.0856 50.7085 16.5767 50.7327 16.0076C50.7648 15.4386 50.793 14.8415 50.8171 14.2164C50.8412 13.5912 50.8613 12.95 50.8773 12.2928C50.8934 11.6355 50.9015 10.9984 50.9015 10.3812C50.9095 9.76413 50.9095 9.18306 50.9015 8.63805C50.9015 8.09303 50.8894 7.61222 50.8653 7.19543C50.8573 6.97098 50.8532 6.77066 50.8532 6.59427C50.8532 6.44202 50.8613 6.30177 50.8773 6.17354C50.8934 6.04529 50.9216 5.98117 50.9618 5.98117C51.0181 5.9411 51.0663 5.91706 51.1066 5.90904C51.1548 5.89301 51.1909 5.889 51.2151 5.89702C51.2473 5.89702 51.2754 5.90103 51.2995 5.90904C51.3236 5.91706 51.3437 5.91706 51.3598 5.90904C51.3759 5.90103 51.3839 5.889 51.3839 5.87298C51.3839 5.85694 51.3839 5.83691 51.3839 5.81286C51.392 5.78882 51.4041 5.76477 51.4202 5.74073C51.4362 5.70867 51.4724 5.68462 51.5287 5.6686C51.593 5.64455 51.6413 5.63253 51.6734 5.63253C51.7136 5.62452 51.7457 5.62452 51.77 5.63253C51.7941 5.64054 51.8141 5.64856 51.8302 5.65658C51.8463 5.66459 51.8704 5.66058 51.9026 5.64455C51.9669 5.61249 52.0191 5.58444 52.0594 5.56039C52.0996 5.52834 52.1357 5.51632 52.1679 5.52433C52.2001 5.53235 52.2243 5.56841 52.2403 5.63253C52.2644 5.68863 52.2845 5.78882 52.3006 5.93308ZM63.8964 18.412C63.8964 18.5003 63.9005 18.6045 63.9085 18.7246C63.9166 18.8449 63.9206 18.9811 63.9206 19.1334C63.9206 19.3258 63.8924 19.5662 63.8362 19.8548C63.7798 20.1352 63.6874 20.4318 63.5587 20.7444C63.4381 21.057 63.2733 21.3696 63.0642 21.6821C62.8551 21.9946 62.5978 22.2752 62.2923 22.5236C61.9867 22.7721 61.6249 22.9725 61.2067 23.1248C60.7967 23.2851 60.3263 23.3652 59.7956 23.3652C59.3212 23.3652 58.8347 23.273 58.3362 23.0887C57.8456 22.9123 57.3953 22.6359 56.9853 22.2592C56.5832 21.8745 56.2496 21.3895 55.9842 20.8044C55.7269 20.2114 55.5982 19.5061 55.5982 18.6886C55.5982 18.1757 55.6626 17.6707 55.7912 17.1738C55.9279 16.6769 56.1048 16.208 56.3219 15.7672C56.5471 15.3264 56.8083 14.9216 57.1058 14.553C57.4114 14.1763 57.729 13.8557 58.0587 13.5912C58.3964 13.3187 58.7422 13.1063 59.096 12.954C59.4578 12.8017 59.8076 12.7256 60.1453 12.7256C60.7323 12.7256 61.2148 12.8178 61.5928 13.0021C61.9787 13.1865 62.2842 13.4149 62.5094 13.6874C62.7346 13.9599 62.8914 14.2524 62.9798 14.565C63.0762 14.8695 63.1246 15.1461 63.1246 15.3945C63.1246 15.6349 63.0642 15.9115 62.9436 16.2241C62.831 16.5286 62.6421 16.8211 62.3767 17.1017C62.1114 17.3742 61.7656 17.6066 61.3394 17.799C60.9133 17.9833 60.3906 18.0754 59.7714 18.0754C59.4417 18.0754 59.1442 18.0314 58.8789 17.9432C58.6216 17.847 58.3924 17.7308 58.1914 17.5946C57.9903 17.4503 57.8175 17.2981 57.6728 17.1377C57.536 16.9694 57.4194 16.8131 57.323 16.6688C57.1783 17.1658 57.1058 17.7469 57.1058 18.412C57.1058 18.8689 57.1703 19.2817 57.2989 19.6504C57.4356 20.011 57.6205 20.3196 57.8537 20.5761C58.0869 20.8325 58.3643 21.0289 58.686 21.1652C59.0076 21.3014 59.3614 21.3696 59.7473 21.3696C60.2298 21.3696 60.6519 21.2894 61.0137 21.1291C61.3756 20.9607 61.6892 20.7523 61.9546 20.504C62.228 20.2555 62.4612 19.987 62.6541 19.6985C62.8551 19.4019 63.028 19.1334 63.1728 18.8929C63.3175 18.6445 63.4421 18.4401 63.5467 18.2799C63.6592 18.1195 63.7678 18.0434 63.8723 18.0514C63.9206 18.0514 63.9447 18.0915 63.9447 18.1716C63.9447 18.2117 63.9407 18.2518 63.9326 18.2919C63.9246 18.332 63.9125 18.372 63.8964 18.412ZM60.266 13.9398C60.1212 13.9398 59.9323 13.9719 59.6991 14.036C59.4739 14.0921 59.2328 14.1963 58.9754 14.3486C58.7262 14.5009 58.4769 14.7093 58.2276 14.9737C57.9783 15.2302 57.7612 15.5588 57.5762 15.9596C57.6889 15.9034 57.7853 15.8554 57.8658 15.8153C57.9542 15.7752 58.0145 15.7552 58.0467 15.7552C58.0628 15.7552 58.0869 15.7712 58.119 15.8033C58.304 16.1158 58.5331 16.3403 58.8065 16.4765C59.088 16.6047 59.4016 16.6688 59.7473 16.6688C60.0207 16.6688 60.2539 16.6248 60.4469 16.5366C60.6479 16.4405 60.8128 16.3202 60.9414 16.1759C61.0701 16.0316 61.1626 15.8754 61.2188 15.7071C61.2751 15.5307 61.3032 15.3585 61.3032 15.1902C61.3032 14.8294 61.2108 14.5329 61.0258 14.3005C60.8409 14.0601 60.5876 13.9398 60.266 13.9398ZM69.8476 7.11123C69.8556 7.27156 69.8476 7.45189 69.8234 7.65221C69.8074 7.84465 69.7752 8.03295 69.7269 8.21731C69.6867 8.40168 69.6265 8.56595 69.546 8.71024C69.4736 8.85452 69.3852 8.95468 69.2806 9.01071C69.0153 9.14702 68.7822 9.21517 68.5811 9.21517C68.4203 9.21517 68.2795 9.17903 68.159 9.10693C68.0463 9.02677 67.9338 8.93862 67.8213 8.8424C67.6604 8.71417 67.5237 8.54586 67.4111 8.33747C67.3066 8.12917 67.2543 7.92875 67.2543 7.73641C67.2543 7.58415 67.2785 7.39979 67.3267 7.18341C67.383 6.95897 67.4513 6.74259 67.5318 6.5342C67.6122 6.3258 67.6966 6.1375 67.7851 5.96915C67.8815 5.79283 67.974 5.67261 68.0624 5.60848C68.1992 5.49628 68.3238 5.43617 68.4363 5.42816C68.557 5.41212 68.6535 5.41613 68.7258 5.44017C68.9027 5.48025 69.0595 5.53235 69.1963 5.59647C69.3329 5.65257 69.4455 5.74474 69.534 5.87298C69.6304 5.9932 69.7028 6.15345 69.7511 6.35387C69.7993 6.55419 69.8315 6.80671 69.8476 7.11123ZM68.8585 12.4852C68.8987 12.5253 68.9269 12.6574 68.9429 12.8819C68.967 13.1063 68.9792 13.3988 68.9792 13.7595C68.9792 14 68.9751 14.2604 68.967 14.541C68.959 14.8215 68.947 15.11 68.9309 15.4066C68.9229 15.7031 68.9108 16.0037 68.8947 16.3082C68.8786 16.6047 68.8665 16.8893 68.8585 17.1618C68.8344 17.6106 68.8183 18.0274 68.8103 18.412C68.8103 18.7887 68.8103 19.1534 68.8103 19.5061C68.8103 19.971 68.8143 20.3957 68.8224 20.7804C68.8304 21.1652 68.8344 21.4858 68.8344 21.7422C68.8344 22.0227 68.8224 22.2391 68.7982 22.3914C68.7822 22.5357 68.7419 22.6158 68.6776 22.6318C68.6052 22.6479 68.5449 22.6839 68.4967 22.7401C68.4484 22.7881 68.4042 22.8362 68.364 22.8844C68.3238 22.9324 68.2756 22.9725 68.2193 23.0045C68.171 23.0446 68.1107 23.0566 68.0383 23.0406C67.9981 23.0326 67.9297 22.9965 67.8333 22.9324C67.7368 22.8683 67.6322 22.7922 67.5197 22.7039C67.4152 22.6078 67.3147 22.4996 67.2181 22.3794C67.1217 22.2592 67.0574 22.135 67.0252 22.0067C67.0091 21.9425 66.9931 21.8143 66.9769 21.622C66.9688 21.4296 66.9608 21.1972 66.9528 20.9247C66.9447 20.6522 66.9367 20.3516 66.9287 20.0231C66.9206 19.6864 66.9126 19.3498 66.9045 19.0132C66.9045 18.6686 66.9045 18.332 66.9045 18.0033C66.9045 17.6747 66.9045 17.3781 66.9045 17.1137C66.9045 16.7049 66.9166 16.2882 66.9408 15.8633C66.9729 15.4386 67.0051 15.0419 67.0372 14.6732C67.0774 14.3045 67.1136 13.9839 67.1458 13.7114C67.186 13.4309 67.2142 13.2346 67.2302 13.1223C67.2624 12.9299 67.2945 12.7817 67.3267 12.6775C67.3669 12.5654 67.4072 12.4852 67.4474 12.437C67.4956 12.389 67.5398 12.3609 67.58 12.3529C67.6283 12.3369 67.6765 12.3248 67.7247 12.3169C67.8213 12.3008 67.9297 12.2968 68.0504 12.3049C68.179 12.3128 68.2997 12.3248 68.4122 12.3409C68.5249 12.357 68.6213 12.381 68.7017 12.413C68.7902 12.437 68.8424 12.4612 68.8585 12.4852ZM76.462 22.2592C76.9445 22.2592 77.4229 22.3032 77.8973 22.3914C78.3798 22.4796 78.814 22.6278 79.2 22.8362C79.5859 23.0446 79.8955 23.3171 80.1287 23.6537C80.3699 23.9983 80.4905 24.4271 80.4905 24.9401C80.4905 25.3168 80.4021 25.6975 80.2252 26.0822C80.0482 26.467 79.803 26.8396 79.4895 27.2003C79.1759 27.5609 78.8059 27.9016 78.3798 28.2222C77.9616 28.5427 77.5073 28.8193 77.0168 29.0517C76.5264 29.2921 76.0157 29.4804 75.485 29.6167C74.9543 29.7529 74.4236 29.8211 73.8929 29.8211C73.4587 29.8211 73.0486 29.773 72.6627 29.6768C72.2848 29.5887 71.9511 29.4525 71.6616 29.2681C71.3802 29.0837 71.155 28.8513 70.9861 28.5708C70.8173 28.2983 70.7329 27.9737 70.7329 27.597C70.7329 27.2284 70.8052 26.8797 70.95 26.5511C71.0947 26.2305 71.2836 25.934 71.5168 25.6615C71.7581 25.3889 72.0314 25.1405 72.337 24.916C72.6425 24.6996 72.9562 24.5153 73.2778 24.363C73.6075 24.2187 73.9291 24.1066 74.2427 24.0264C74.5563 23.9462 74.8418 23.9062 75.0991 23.9062C75.2357 23.9222 75.3282 23.9383 75.3765 23.9543C75.4248 23.9783 75.4489 24.0024 75.4489 24.0264C75.4489 24.0504 75.4368 24.0785 75.4127 24.1106C75.3886 24.1507 75.3765 24.1827 75.3765 24.2067C75.3925 24.2549 75.4086 24.3109 75.4248 24.375C75.4409 24.4391 75.4489 24.5033 75.4489 24.5674C75.4489 24.6475 75.4328 24.7157 75.4006 24.7718C75.3765 24.8359 75.3202 24.876 75.2318 24.892C74.8941 24.9722 74.5202 25.1085 74.11 25.3008C73.708 25.4931 73.3261 25.7175 72.9643 25.974C72.6104 26.2385 72.3129 26.519 72.0716 26.8156C71.8304 27.1201 71.7059 27.4246 71.6978 27.7293C71.6978 27.8735 71.7661 27.9777 71.9028 28.0418C72.0395 28.106 72.2325 28.138 72.4818 28.138C72.7873 28.138 73.1532 28.0939 73.5793 28.0058C74.0055 27.9176 74.4478 27.7893 74.9061 27.621C75.3645 27.4608 75.8147 27.2604 76.257 27.02C76.7073 26.7875 77.1093 26.523 77.4631 26.2265C77.825 25.9299 78.1145 25.6094 78.3316 25.2647C78.5486 24.9201 78.6572 24.5514 78.6572 24.1587C78.6572 23.9663 78.617 23.8141 78.5366 23.7018C78.4643 23.5976 78.3757 23.5175 78.2712 23.4614C78.1748 23.4052 78.0702 23.3692 77.9577 23.3532C77.8531 23.3452 77.7647 23.3411 77.6923 23.3411C77.1214 23.3411 76.5384 23.3732 75.9434 23.4374C75.3484 23.5094 74.8056 23.5816 74.315 23.6537C73.8327 23.7339 73.4346 23.806 73.121 23.8701C72.8075 23.9423 72.6425 23.9783 72.6265 23.9783C72.4496 23.9783 72.2848 23.9423 72.132 23.8701C71.9873 23.798 71.8626 23.7058 71.7581 23.5937C71.6536 23.4814 71.5691 23.3492 71.5048 23.1969C71.4485 23.0527 71.4204 22.9044 71.4204 22.7521C71.4204 22.6318 71.4927 22.4595 71.6375 22.2351C71.7822 22.0027 71.9711 21.7542 72.2043 21.4897C72.4375 21.2253 72.7029 20.9648 73.0004 20.7083C73.3059 20.4519 73.6115 20.2394 73.9171 20.0711C73.6437 19.9268 73.3984 19.7506 73.1813 19.5422C72.9643 19.3338 72.7793 19.1093 72.6265 18.8689C72.4818 18.6285 72.3691 18.376 72.2888 18.1116C72.2084 17.839 72.1682 17.5625 72.1682 17.282C72.1682 16.737 72.2446 16.2561 72.3973 15.8393C72.5501 15.4145 72.7511 15.0459 73.0004 14.7333C73.2497 14.4207 73.5271 14.1602 73.8327 13.9518C74.1462 13.7434 74.4559 13.5751 74.7614 13.4469C75.0669 13.3187 75.3564 13.2305 75.6298 13.1825C75.9032 13.1263 76.1323 13.0983 76.3173 13.0983C76.4057 13.0983 76.4781 13.1023 76.5344 13.1103C76.5987 13.1183 76.655 13.1304 76.7032 13.1464C76.9043 12.8257 77.1334 12.4852 77.3907 12.1245C77.6561 11.7558 77.9255 11.3951 78.1989 11.0425C78.4803 10.6818 78.7577 10.3413 79.0311 10.0206C79.3125 9.69204 79.5659 9.40347 79.7909 9.155C80.0241 8.89854 80.2211 8.69822 80.382 8.55394C80.5428 8.40168 80.6513 8.32545 80.7077 8.32545C80.78 8.32545 80.8684 8.37361 80.973 8.46973C81.0775 8.55788 81.178 8.66208 81.2745 8.78233C81.3711 8.8945 81.4514 9.00678 81.5157 9.11895C81.5881 9.22315 81.6243 9.29524 81.6243 9.33532C81.6243 9.37541 81.6082 9.41145 81.5761 9.44356C81.5439 9.47557 81.5278 9.50363 81.5278 9.52766C81.5278 9.56775 81.5479 9.60389 81.5881 9.6359C81.6364 9.65993 81.7047 9.69204 81.7932 9.73212C81.8093 9.74807 81.8213 9.75615 81.8293 9.75615C81.8374 9.75615 81.8414 9.76413 81.8414 9.78018C81.8414 9.81219 81.7891 9.86833 81.6846 9.94849C81.58 10.0206 81.4112 10.1529 81.178 10.3452C80.9448 10.5296 80.6433 10.7901 80.2734 11.1267C79.9036 11.4633 79.4493 11.9081 78.9105 12.4612C78.7818 12.5813 78.6491 12.7296 78.5125 12.9059C78.3757 13.0823 78.227 13.2706 78.0662 13.471C78.2752 13.5832 78.4923 13.7314 78.7175 13.9158C78.9427 14.1001 79.1437 14.3165 79.3206 14.565C79.5055 14.8054 79.6543 15.0819 79.7668 15.3945C79.8875 15.7071 79.9477 16.0438 79.9477 16.4044C79.9477 17.1738 79.8191 17.819 79.5618 18.3399C79.3045 18.8609 78.9708 19.2817 78.5607 19.6022C78.1506 19.9148 77.6923 20.1393 77.1857 20.2755C76.6791 20.4118 76.1806 20.4798 75.69 20.4798C75.5695 20.4798 75.4529 20.4759 75.3403 20.4678C75.2357 20.4598 75.1313 20.4478 75.0268 20.4318C74.8418 20.552 74.6327 20.7002 74.3995 20.8766C74.1663 21.0529 73.9372 21.2453 73.712 21.4537C73.4868 21.6621 73.2778 21.8745 73.0848 22.0909C72.8998 22.3072 72.7591 22.5116 72.6627 22.7039C72.9843 22.696 73.2939 22.6719 73.5914 22.6318C73.8889 22.5838 74.1864 22.5317 74.4839 22.4755C74.7895 22.4195 75.1031 22.3713 75.4248 22.3313C75.7464 22.2832 76.0921 22.2592 76.462 22.2592ZM76.0881 14.577C76.0881 14.4167 76.1806 14.1442 76.3655 13.7595C75.9876 13.8797 75.6499 14.0601 75.3523 14.3005C75.0548 14.541 74.8016 14.8135 74.5925 15.118C74.3834 15.4226 74.2227 15.7512 74.11 16.1038C73.9975 16.4484 73.9412 16.7931 73.9412 17.1377C73.9412 17.3862 73.9693 17.6266 74.0256 17.859C74.09 18.0835 74.1864 18.2878 74.315 18.4722C74.4437 18.6485 74.6086 18.7928 74.8096 18.905C75.0187 19.0092 75.272 19.0613 75.5695 19.0613C75.8911 19.0613 76.1766 19.0052 76.4259 18.8929C76.6832 18.7728 76.9083 18.6204 77.1013 18.4362C77.2943 18.2437 77.455 18.0314 77.5837 17.799C77.7204 17.5665 77.829 17.3381 77.9094 17.1137C77.9979 16.8813 78.0622 16.6649 78.1023 16.4645C78.1425 16.2642 78.1627 16.1038 78.1627 15.9836C78.1627 15.5027 78.0823 15.13 77.9214 14.8656C77.7687 14.5931 77.5877 14.3887 77.3787 14.2524C77.2661 14.3887 77.1495 14.5209 77.0289 14.6491C76.9083 14.7694 76.7836 14.8935 76.655 15.0219C76.6389 15.0378 76.6148 15.0459 76.5827 15.0459C76.5585 15.0459 76.5384 15.0339 76.5223 15.0099C76.5063 14.9857 76.4781 14.9737 76.4379 14.9737C76.4138 14.9737 76.3897 14.9857 76.3655 15.0099C76.3414 15.0339 76.3093 15.0459 76.2691 15.0459C76.2127 15.0459 76.1686 15.0138 76.1364 14.9497C76.1042 14.8856 76.0881 14.7614 76.0881 14.577ZM89.8912 14.7213C89.9073 14.8335 89.9194 14.9617 89.9274 15.106C89.9355 15.2423 89.9394 15.3865 89.9394 15.5388C89.9394 15.9235 89.9234 16.3723 89.8912 16.8852C89.859 17.3982 89.8189 18.0074 89.7705 18.7126C89.7545 18.9851 89.7424 19.3338 89.7344 19.7585C89.7264 20.1753 89.7223 20.6082 89.7223 21.057C89.7223 21.4416 89.7264 21.8143 89.7344 22.175C89.7505 22.5357 89.7705 22.8523 89.7947 23.1248C89.8108 23.245 89.7826 23.3091 89.7103 23.3171C89.6379 23.3251 89.5575 23.3171 89.4691 23.2931C89.4289 23.277 89.3926 23.277 89.3605 23.2931C89.3283 23.3091 89.2962 23.3291 89.264 23.3532C89.2399 23.3772 89.2117 23.3932 89.1796 23.4013C89.1555 23.4173 89.1193 23.4052 89.071 23.3652C89.0308 23.3332 88.9625 23.2851 88.866 23.221C88.7694 23.1568 88.665 23.0847 88.5524 23.0045C88.4478 22.9324 88.3473 22.8523 88.2508 22.7641C88.1544 22.676 88.0819 22.5958 88.0337 22.5236C87.9855 22.4114 87.9533 22.135 87.9373 21.6942C87.9212 21.2533 87.9131 20.7203 87.9131 20.0952V18.4722C87.9212 18.1195 87.9373 17.7709 87.9614 17.4263C87.9855 17.0816 88.0137 16.749 88.0458 16.4284C88.078 16.1079 88.1061 15.8073 88.1302 15.5268C88.1544 15.2382 88.1664 14.9778 88.1664 14.7453C88.1664 14.3766 88.1141 14.1001 88.0096 13.9158C87.9855 13.8838 87.9131 13.9038 87.7925 13.9759C87.6719 14.048 87.5151 14.2003 87.3221 14.4327C87.1371 14.6652 86.9241 14.9938 86.6828 15.4186C86.4496 15.8433 86.2003 16.3924 85.9351 17.0656C85.6778 17.7388 85.4124 18.5524 85.139 19.5061C84.8737 20.4598 84.6203 21.5819 84.3791 22.8722C84.355 22.9845 84.3228 23.0606 84.2826 23.1007C84.2505 23.1488 84.1862 23.1728 84.0896 23.1728C84.0253 23.1728 83.969 23.1207 83.9208 23.0165C83.8806 22.9204 83.8283 22.8402 83.764 22.7761C83.6112 22.7761 83.4705 22.7601 83.3419 22.7281C83.2212 22.688 83.1489 22.5877 83.1248 22.4275C83.1248 22.3713 83.1087 22.3193 83.0765 22.2712C83.0524 22.2231 83.0202 22.171 82.98 22.1149C82.9478 22.0508 82.9157 21.9867 82.8835 21.9226C82.8594 21.8505 82.8473 21.7663 82.8473 21.67C82.8714 21.1091 82.8916 20.4999 82.9076 19.8427C82.9237 19.1775 82.9398 18.5003 82.9559 17.811C82.98 17.1137 83.0001 16.4164 83.0162 15.7192C83.0323 15.0219 83.0524 14.3566 83.0765 13.7234C83.1006 13.0823 83.1207 12.4891 83.1368 11.9442C83.1609 11.3911 83.1891 10.9142 83.2212 10.5135C83.3178 9.31937 83.4142 8.38159 83.5107 7.70037C83.6072 7.01107 83.6675 6.61033 83.6916 6.49815C83.7157 6.41799 83.7399 6.35791 83.764 6.31783C83.7881 6.27774 83.8082 6.24967 83.8243 6.23362C83.8484 6.21757 83.8646 6.20555 83.8726 6.19758C83.8887 6.1896 83.9007 6.16951 83.9087 6.1375C83.9248 6.10539 83.953 6.08934 83.9932 6.08934C84.0414 6.08136 84.0937 6.08136 84.15 6.08934C84.2062 6.08934 84.2585 6.08934 84.3067 6.08934C84.355 6.08136 84.3952 6.06137 84.4274 6.02926C84.4917 5.98117 84.544 5.9411 84.5842 5.90904C84.6324 5.87699 84.7128 5.86095 84.8253 5.86095C84.9621 5.84492 85.0666 5.84893 85.139 5.87298C85.2114 5.889 85.2556 5.96514 85.2717 6.10136C85.2958 6.34983 85.3039 6.67444 85.2958 7.07518C85.2878 7.47592 85.2676 7.91674 85.2355 8.39764C85.2033 8.87855 85.1671 9.38742 85.1269 9.92446C85.0867 10.4534 85.0425 10.9744 84.9942 11.4873C84.9541 12.0002 84.9139 12.4891 84.8737 12.954C84.8415 13.4108 84.8173 13.8036 84.8012 14.1322C84.7852 14.3165 84.7732 14.541 84.7651 14.8054C84.7651 15.0619 84.7651 15.3424 84.7651 15.647C84.7651 15.9435 84.7651 16.2561 84.7651 16.5847C84.7651 16.9053 84.761 17.2218 84.753 17.5344C85.0023 16.7651 85.2717 16.0959 85.5612 15.5268C85.8506 14.9497 86.1401 14.4688 86.4296 14.0841C86.7191 13.6994 86.9964 13.4068 87.2618 13.2065C87.5352 13.0061 87.7764 12.8899 87.9855 12.8579C88.0337 12.8499 88.1182 12.8619 88.2387 12.8939C88.3674 12.926 88.5001 12.962 88.6368 13.0021C88.7735 13.0422 88.8982 13.0862 89.0107 13.1344C89.1233 13.1744 89.1876 13.2025 89.2037 13.2185C89.2359 13.2586 89.2841 13.3147 89.3484 13.3868C89.4128 13.4509 89.4771 13.5391 89.5414 13.6513C89.6137 13.7635 89.6781 13.9078 89.7344 14.0841C89.7987 14.2604 89.851 14.4728 89.8912 14.7213ZM95.7458 6.49815C95.7379 6.55419 95.7221 6.73452 95.6974 7.03913C95.6816 7.34365 95.6569 7.72843 95.6253 8.19328C95.6015 8.65006 95.5689 9.16307 95.5284 9.73212C95.4968 10.2931 95.4603 10.8582 95.4197 11.4273C95.3881 11.9963 95.3555 12.5453 95.3239 13.0742C95.2992 13.5952 95.2794 14.048 95.2636 14.4327C95.3684 14.2564 95.5047 14.0801 95.6737 13.9038C95.8426 13.7275 96.0432 13.5712 96.2764 13.4349C96.5175 13.2906 96.7912 13.1744 97.0965 13.0862C97.4107 12.9981 97.7605 12.954 98.1458 12.954C98.6369 12.954 99.123 13.0422 99.6052 13.2185C100.096 13.3948 100.534 13.6673 100.92 14.036C101.306 14.3967 101.62 14.8615 101.861 15.4306C102.102 15.9917 102.223 16.6609 102.223 17.4383C102.223 18.0875 102.135 18.6766 101.958 19.2055C101.789 19.7345 101.564 20.2074 101.282 20.6241C101.008 21.0329 100.695 21.3895 100.341 21.6942C99.9876 21.9987 99.6299 22.2512 99.2673 22.4515C98.9056 22.6519 98.5559 22.8002 98.218 22.8964C97.881 22.9925 97.5876 23.0406 97.3376 23.0406C97.0807 23.0406 96.8396 23.0165 96.6143 22.9685C96.3969 22.9204 96.2043 22.8602 96.0353 22.7881C95.8743 22.716 95.7458 22.6359 95.649 22.5477C95.561 22.4595 95.5126 22.3713 95.5047 22.2832C95.4889 22.0988 95.485 21.9025 95.4929 21.6942C95.5087 21.4858 95.5847 21.3134 95.7221 21.1772C95.8505 21.0489 95.9592 20.9728 96.0472 20.9487C96.144 20.9247 96.2359 20.9688 96.3248 21.081C96.4128 21.1932 96.4651 21.3175 96.4819 21.4537C96.5056 21.59 96.4938 21.6942 96.4454 21.7663C96.4216 21.8063 96.4216 21.8424 96.4454 21.8745C96.478 21.8985 96.5214 21.9226 96.5778 21.9466C96.642 21.9626 96.7111 21.9787 96.7833 21.9946C96.8633 22.0027 96.9394 22.0067 97.0125 22.0067C97.2852 22.0067 97.5955 21.8985 97.9413 21.6821C98.295 21.4577 98.6241 21.1491 98.9304 20.7564C99.2357 20.3636 99.4926 19.9028 99.702 19.3738C99.9105 18.8449 100.011 18.2718 100.003 17.6547C99.9955 17.1658 99.9352 16.741 99.8226 16.3804C99.7099 16.0117 99.5696 15.7031 99.4007 15.4546C99.2317 15.1982 99.039 14.9898 98.8217 14.8294C98.6122 14.6692 98.4037 14.5489 98.1942 14.4688C97.9937 14.3806 97.8 14.3245 97.6152 14.3005C97.4384 14.2764 97.2941 14.2685 97.1815 14.2764C96.7062 14.3326 96.3011 14.4968 95.9632 14.7694C95.6253 15.0339 95.3802 15.3705 95.2271 15.7792C95.2034 16.6288 95.1707 17.4864 95.1302 18.352C95.0986 19.2096 95.0828 20.011 95.0828 20.7564C95.0828 21.1251 95.0868 21.4777 95.0947 21.8143C95.1105 22.1509 95.1391 22.4475 95.1786 22.7039C95.1866 22.7841 95.1826 22.8402 95.1668 22.8722C95.1589 22.9044 95.1391 22.9204 95.1065 22.9204C95.0739 22.9204 95.0383 22.9123 94.9978 22.8964C94.9573 22.8803 94.9218 22.8643 94.8891 22.8482C94.8575 22.8323 94.8496 22.8523 94.8654 22.9084C94.8812 22.9644 94.8891 23.0206 94.8891 23.0767C94.897 23.1408 94.8852 23.1848 94.8536 23.2089C94.8289 23.241 94.7567 23.221 94.6362 23.1488C94.572 23.0927 94.491 23.0486 94.3951 23.0165C94.3062 22.9925 94.2746 23.0126 94.2983 23.0767C94.3062 23.1007 94.2825 23.1127 94.2262 23.1127C94.1698 23.1207 94.1017 23.1127 94.021 23.0887C93.9486 23.0647 93.8763 23.0206 93.8039 22.9565C93.7396 22.8923 93.6954 22.8002 93.6713 22.6799C93.631 22.4315 93.5908 22.167 93.5506 21.8865C93.5185 21.5979 93.4903 21.2854 93.4662 20.9487C93.4421 20.6041 93.422 20.2274 93.4059 19.8187C93.3898 19.4019 93.3817 18.933 93.3817 18.412C93.3817 18.0194 93.3817 17.5946 93.3817 17.1377C93.3898 16.6729 93.4059 16.1639 93.43 15.6109C93.4622 14.609 93.5024 13.6192 93.5506 12.6415C93.5988 11.6636 93.6511 10.77 93.7074 9.96051C93.7637 9.14298 93.824 8.44167 93.8883 7.85666C93.9608 7.27156 94.0371 6.87082 94.1175 6.65445C94.1333 6.57428 94.1659 6.52622 94.2143 6.51017C94.2706 6.49412 94.3704 6.46605 94.5157 6.42596C94.652 6.38588 94.7933 6.34589 94.9376 6.30581C95.0907 6.26573 95.2073 6.25765 95.2873 6.28168C95.3199 6.29774 95.3634 6.29774 95.4197 6.28168C95.4761 6.26573 95.5284 6.25765 95.5768 6.25765C95.6332 6.25765 95.6776 6.2737 95.7092 6.30581C95.7498 6.33782 95.7616 6.40193 95.7458 6.49815ZM113.578 17.7268C113.578 18.5683 113.453 19.3258 113.203 19.999C112.962 20.6723 112.629 21.2453 112.202 21.7182C111.784 22.191 111.298 22.5557 110.743 22.8122C110.188 23.0686 109.602 23.1969 108.982 23.1969C108.725 23.1969 108.443 23.1648 108.137 23.1007C107.832 23.0446 107.527 22.9485 107.221 22.8122C106.916 22.676 106.618 22.4956 106.328 22.2712C106.039 22.0467 105.782 21.7703 105.556 21.4416C105.331 21.1131 105.15 20.7283 105.014 20.2875C104.885 19.8467 104.825 19.3378 104.833 18.7607C104.833 18.1035 104.913 17.5064 105.074 16.9694C105.235 16.4244 105.44 15.9396 105.689 15.5147C105.947 15.0819 106.236 14.7093 106.557 14.3967C106.879 14.0841 107.201 13.8236 107.523 13.6152C107.844 13.3988 108.154 13.2385 108.451 13.1344C108.749 13.0302 109.006 12.97 109.223 12.954C109.336 12.946 109.384 12.958 109.368 12.9901C109.359 13.0221 109.332 13.0582 109.283 13.0983C109.235 13.1383 109.191 13.1784 109.151 13.2185C109.118 13.2586 109.135 13.2826 109.199 13.2906C109.256 13.3067 109.299 13.3227 109.332 13.3388C109.372 13.3547 109.412 13.3748 109.452 13.3988L109.549 13.2906C109.605 13.2506 109.658 13.2305 109.705 13.2305C109.762 13.2305 109.81 13.2385 109.85 13.2546C109.891 13.2626 109.923 13.2666 109.947 13.2666C109.971 13.2666 109.987 13.2425 109.995 13.1945C110.012 13.1063 110.039 13.0582 110.08 13.0502C110.128 13.0341 110.232 13.0262 110.393 13.0262C110.49 13.0262 110.634 13.0542 110.828 13.1103C111.028 13.1664 111.246 13.2626 111.479 13.3988C111.72 13.5351 111.961 13.7194 112.202 13.9518C112.452 14.1763 112.676 14.4648 112.878 14.8174C113.086 15.1621 113.255 15.5749 113.385 16.0558C113.513 16.5366 113.578 17.0936 113.578 17.7268ZM109.223 14.2043C108.941 14.3727 108.665 14.601 108.391 14.8896C108.117 15.1781 107.868 15.5108 107.643 15.8875C107.426 16.2642 107.249 16.6849 107.113 17.1497C106.976 17.6146 106.907 18.1035 106.907 18.6165C106.907 19.1695 106.955 19.6704 107.052 20.1192C107.157 20.5681 107.305 20.9528 107.499 21.2733C107.692 21.5859 107.925 21.8304 108.198 22.0067C108.479 22.175 108.797 22.2592 109.151 22.2592C109.464 22.2592 109.774 22.171 110.08 21.9946C110.393 21.8184 110.671 21.5538 110.912 21.2012C111.153 20.8486 111.346 20.4118 111.491 19.8908C111.644 19.3698 111.72 18.7647 111.72 18.0754C111.72 17.3781 111.627 16.7931 111.442 16.3202C111.258 15.8474 111.048 15.4666 110.815 15.1781C110.591 14.8815 110.373 14.6732 110.164 14.553C109.955 14.4248 109.826 14.3606 109.778 14.3606C109.666 14.3606 109.577 14.3606 109.513 14.3606C109.456 14.3606 109.359 14.3085 109.223 14.2043ZM122.399 14.1563C122.391 14.3887 122.367 14.6211 122.327 14.8536C122.294 15.0779 122.246 15.2944 122.182 15.5027C122.117 15.7031 122.037 15.8834 121.941 16.0438C121.853 16.204 121.752 16.3322 121.639 16.4284C121.542 16.5086 121.466 16.5487 121.41 16.5487C121.354 16.5487 121.305 16.5326 121.266 16.5005C121.233 16.4685 121.205 16.4324 121.181 16.3924C121.157 16.3523 121.124 16.3283 121.085 16.3202C121.052 16.3122 121.008 16.3162 120.951 16.3322C120.903 16.3403 120.852 16.3403 120.795 16.3322C120.747 16.3242 120.699 16.2962 120.65 16.2481C120.61 16.192 120.582 16.0959 120.566 15.9596C120.549 15.8073 120.553 15.6109 120.578 15.3705C120.61 15.122 120.626 14.8815 120.626 14.6491C120.626 14.4408 120.602 14.2685 120.553 14.1322C120.514 13.988 120.437 13.9158 120.324 13.9158C120.269 13.9158 120.168 13.9599 120.023 14.048C119.886 14.1282 119.733 14.3045 119.564 14.577C119.396 14.8495 119.227 15.2462 119.058 15.7672C118.889 16.2801 118.752 16.9654 118.648 17.823C118.648 18.929 118.656 19.8187 118.672 20.492C118.688 21.1652 118.697 21.6901 118.697 22.0668C118.697 22.3874 118.688 22.6158 118.672 22.7521C118.656 22.8883 118.616 22.9764 118.551 23.0165C118.511 23.0406 118.431 23.0686 118.31 23.1007C118.198 23.1408 118.073 23.1769 117.936 23.2089C117.807 23.241 117.683 23.269 117.562 23.2931C117.442 23.3171 117.366 23.3251 117.333 23.3171C117.309 23.3091 117.265 23.2811 117.201 23.233C117.137 23.1929 117.068 23.1408 116.995 23.0767C116.931 23.0126 116.871 22.9444 116.814 22.8722C116.758 22.8081 116.726 22.7521 116.719 22.7039C116.702 22.6239 116.694 22.4435 116.694 22.163C116.702 21.8745 116.706 21.5298 116.706 21.1291C116.715 20.7283 116.723 20.2915 116.73 19.8187C116.738 19.3378 116.742 18.8609 116.742 18.388C116.742 18.0835 116.75 17.7469 116.766 17.3781C116.791 17.0014 116.814 16.6208 116.839 16.2361C116.871 15.8513 116.903 15.4747 116.935 15.106C116.968 14.7373 116.995 14.4087 117.02 14.1201C117.052 13.8236 117.076 13.5792 117.092 13.3868C117.116 13.1865 117.133 13.0662 117.14 13.0262C117.148 12.9621 117.176 12.938 117.224 12.954C117.281 12.97 117.337 12.9981 117.393 13.0382C117.458 13.0783 117.514 13.1143 117.562 13.1464C117.611 13.1784 117.642 13.1784 117.659 13.1464C117.675 13.0742 117.735 13.0662 117.84 13.1223C117.945 13.1704 118.041 13.2265 118.13 13.2906C118.161 13.3307 118.198 13.3668 118.238 13.3988C118.286 13.4229 118.33 13.4589 118.371 13.5071C118.411 13.5472 118.443 13.6032 118.467 13.6754C118.499 13.7475 118.515 13.8437 118.515 13.9638C118.515 14.0761 118.524 14.2444 118.54 14.4688C118.555 14.6932 118.575 14.9578 118.6 15.2623C118.688 14.9737 118.793 14.6692 118.913 14.3486C119.042 14.028 119.195 13.7355 119.372 13.471C119.548 13.1985 119.758 12.9741 119.999 12.7978C120.24 12.6214 120.53 12.5332 120.867 12.5332C121.052 12.5332 121.237 12.5693 121.422 12.6415C121.607 12.7136 121.772 12.8218 121.917 12.9661C122.069 13.1023 122.191 13.2706 122.278 13.471C122.367 13.6713 122.407 13.8997 122.399 14.1563ZM48.1804 44.7819C48.7433 44.7178 49.3263 44.6618 49.9294 44.6136C50.5405 44.5655 51.1114 44.5415 51.6421 44.5415C51.8029 44.5335 51.9878 44.5255 52.1969 44.5175C52.3738 44.5094 52.5788 44.5055 52.812 44.5055C53.0533 44.4974 53.3146 44.4935 53.596 44.4935C53.8935 44.4935 54.2071 44.4974 54.5368 44.5055C54.8745 44.5134 55.2122 44.5255 55.5499 44.5415C55.5821 44.0606 55.6142 43.5636 55.6465 43.0507C55.6787 42.5378 55.7067 42.0449 55.7308 41.5721C55.763 41.0912 55.7872 40.6504 55.8033 40.2496C55.8274 39.8408 55.8474 39.5002 55.8635 39.2277V38.4102C55.8635 38.1858 55.8635 37.9653 55.8635 37.749C55.8635 37.5246 55.8716 37.3442 55.8876 37.208C55.944 36.9435 56.0605 36.8113 56.2374 36.8113C56.342 36.8113 56.4224 36.8233 56.4787 36.8473C56.535 36.8714 56.6355 36.9155 56.7803 36.9796C56.8526 37.0036 56.929 37.0356 57.0094 37.0757C57.0978 37.1158 57.1823 37.1599 57.2626 37.208C57.3431 37.2481 57.4155 37.2921 57.4798 37.3403C57.5441 37.3803 57.5924 37.4164 57.6246 37.4484C57.6567 37.4805 57.6969 37.5366 57.7451 37.6167C57.7934 37.6889 57.8416 37.7691 57.8899 37.8572C57.9381 37.9453 57.9783 38.0375 58.0105 38.1337C58.0426 38.2219 58.0547 38.298 58.0467 38.3621C58.0387 38.4263 58.0185 38.6627 57.9864 39.0714C57.9542 39.4722 57.914 40.0052 57.8658 40.6703C57.8175 41.3275 57.7653 42.093 57.7089 42.9666C57.6526 43.8402 57.6004 44.7739 57.5521 45.7678C57.4798 47.3707 57.4436 48.7011 57.4436 49.7591C57.4436 50.5526 57.4557 51.1937 57.4798 51.6827C57.5119 52.1716 57.5521 52.5162 57.6004 52.7166C57.6728 53.0532 57.7251 53.2936 57.7572 53.4379C57.7894 53.5822 57.7853 53.6783 57.7451 53.7265C57.729 53.7424 57.7049 53.7585 57.6728 53.7745C57.5924 53.8065 57.4597 53.8386 57.2747 53.8706C57.2426 53.9589 57.2104 54.031 57.1783 54.0871C57.146 54.1352 57.1139 54.1753 57.0817 54.2073C57.0496 54.2394 57.0174 54.2674 56.9853 54.2915C56.9049 54.3155 56.8285 54.3395 56.7561 54.3636C56.6837 54.3876 56.6274 54.3796 56.5872 54.3395C56.5631 54.3316 56.543 54.3195 56.5269 54.3035C56.4948 54.2874 56.4666 54.2434 56.4425 54.1712C56.3621 54.2033 56.2897 54.2033 56.2254 54.1712C56.1932 54.1552 56.1651 54.1392 56.141 54.1232C56.0767 54.067 55.9842 53.9669 55.8635 53.8226C55.743 53.6783 55.6626 53.482 55.6223 53.2335C55.6062 53.1133 55.5781 52.9851 55.5379 52.8488C55.5057 52.7046 55.4696 52.5603 55.4294 52.416C55.3972 52.2638 55.361 52.1195 55.3208 51.9832C55.2887 51.839 55.2645 51.7067 55.2485 51.5865C55.2243 51.4743 55.2122 51.2378 55.2122 50.8772C55.2203 50.5165 55.2323 50.0957 55.2485 49.6149C55.2726 49.134 55.3007 48.621 55.3328 48.0761C55.365 47.531 55.3972 47.018 55.4294 46.5372C55.4294 46.4731 55.4294 46.405 55.4294 46.3328C55.4294 46.2607 55.4374 46.1805 55.4535 46.0924C55.0916 46.0763 54.7338 46.0683 54.38 46.0683C54.0342 46.0683 53.7005 46.0683 53.3789 46.0683C52.9769 46.0683 52.611 46.0724 52.2813 46.0803C51.9517 46.0803 51.6622 46.0844 51.4129 46.0924C51.1235 46.1003 50.8621 46.1084 50.6289 46.1164C49.7765 46.1164 48.9524 46.1404 48.1563 46.1886C48.1483 46.3087 48.1403 46.4129 48.1322 46.5011C48.1322 46.5893 48.1322 46.6654 48.1322 46.7296V46.9099C48.1161 47.6953 48.1001 48.4487 48.084 49.17C48.0679 49.8913 48.0558 50.5365 48.0478 51.1056C48.0397 51.6746 48.0317 52.1475 48.0237 52.5242C48.0237 52.9009 48.0276 53.1373 48.0357 53.2335C48.0357 53.3137 48.0317 53.3978 48.0237 53.486C48.0156 53.5661 47.9995 53.6623 47.9754 53.7745C47.9594 53.8787 47.9312 53.9949 47.891 54.1232C47.8106 54.1311 47.7342 54.1592 47.6618 54.2073C47.6296 54.2314 47.5974 54.2514 47.5653 54.2674C47.4929 54.3155 47.4246 54.3676 47.3603 54.4237C47.304 54.4879 47.2517 54.4999 47.2035 54.4598C47.1392 54.4117 47.0587 54.3796 46.9622 54.3636C46.8738 54.3476 46.7612 54.3395 46.6245 54.3395C46.5602 54.3395 46.4919 54.3195 46.4195 54.2795C46.3471 54.2394 46.2788 54.1953 46.2144 54.1472C46.1501 54.0911 46.0938 54.031 46.0456 53.9669C45.9974 53.9028 45.9692 53.8466 45.9612 53.7986C45.9451 53.7505 45.9249 53.6823 45.9008 53.5942C45.8767 53.498 45.8526 53.4019 45.8285 53.3056C45.8124 53.2014 45.7963 53.1053 45.7802 53.0171C45.7642 52.9209 45.7521 52.8528 45.744 52.8127C45.736 52.7726 45.736 52.5723 45.744 52.2117C45.7521 51.851 45.7681 51.3781 45.7923 50.793C45.8164 50.1999 45.8446 49.5227 45.8767 48.7613C45.9089 47.9919 45.9451 47.1824 45.9853 46.3328C45.6797 46.3649 45.4224 46.3929 45.2133 46.417C45.0042 46.433 44.8756 46.449 44.8274 46.465C44.7389 46.4811 44.6665 46.5011 44.6103 46.5251C44.562 46.5412 44.5178 46.5572 44.4776 46.5733C44.4454 46.5893 44.4133 46.6013 44.3811 46.6093C44.349 46.6093 44.3167 46.6013 44.2846 46.5853C44.2363 46.5853 44.1881 46.5572 44.1399 46.5011C44.0997 46.437 44.0715 46.3649 44.0554 46.2847C43.967 46.2686 43.9067 46.2406 43.8745 46.2006C43.8504 46.1524 43.8303 46.1164 43.8142 46.0924C43.8142 46.0282 43.8424 45.9841 43.8987 45.9601C43.963 45.9281 44.0594 45.8479 44.1881 45.7197C44.2444 45.6636 44.3248 45.6115 44.4294 45.5634C44.5419 45.5073 44.6585 45.4552 44.7792 45.4071C44.8997 45.359 45.0163 45.319 45.1289 45.2868C45.2495 45.2468 45.354 45.2188 45.4426 45.2027L46.0335 45.1065C46.0817 44.3211 46.13 43.6037 46.1783 42.9546C46.2265 42.3054 46.2707 41.7042 46.311 41.1512C46.3511 40.5983 46.3833 40.0852 46.4074 39.6124C46.4396 39.1315 46.4556 38.6667 46.4556 38.2179C46.4556 38.0896 46.4517 37.9694 46.4436 37.8572C46.4356 37.7449 46.4315 37.6248 46.4315 37.4966C46.4315 37.4003 46.4556 37.3202 46.5039 37.256C46.5602 37.184 46.6285 37.1398 46.709 37.1239H46.8537C46.9421 37.1239 47.107 37.1359 47.3482 37.1599C47.3804 37.0798 47.4165 37.0277 47.4567 37.0036C47.4808 36.9876 47.501 36.9796 47.5171 36.9796C47.5814 36.9796 47.6337 36.9956 47.6739 37.0277C47.7221 37.0517 47.7542 37.0757 47.7703 37.0998C47.7703 37.1158 47.7744 37.1319 47.7824 37.1479C47.7905 37.1719 47.8026 37.208 47.8186 37.256C47.8829 37.2721 47.9312 37.2882 47.9633 37.3042C47.9955 37.3202 48.0237 37.3362 48.0478 37.3523C48.0719 37.3763 48.092 37.3924 48.1081 37.4003L48.1442 37.4725C48.1683 37.5206 48.1925 37.6128 48.2167 37.749C48.2729 37.8692 48.3091 37.9533 48.3251 38.0015C48.3332 38.0335 48.3372 38.0536 48.3372 38.0616C48.3372 38.0776 48.3413 38.0976 48.3493 38.1216C48.3493 38.1377 48.3493 38.1537 48.3493 38.1698C48.3574 38.1858 48.3614 38.2018 48.3614 38.2179L48.1804 44.7819ZM69.7511 49.2421C69.7511 50.0837 69.6265 50.8411 69.3772 51.5144C69.1359 52.1876 68.8022 52.7606 68.3761 53.2335C67.9579 53.7064 67.4715 54.0711 66.9166 54.3275C66.3618 54.584 65.7748 54.7122 65.1556 54.7122C64.8983 54.7122 64.6169 54.6802 64.3113 54.6161C64.0058 54.5599 63.7002 54.4638 63.3947 54.3275C63.0892 54.1913 62.7916 54.011 62.5022 53.7865C62.2127 53.5621 61.9554 53.2856 61.7302 52.957C61.5051 52.6284 61.3242 52.2437 61.1875 51.8028C61.0588 51.362 60.9985 50.8531 61.0065 50.276C61.0065 49.6188 61.087 49.0217 61.2477 48.4848C61.4086 47.9398 61.6136 47.4549 61.8629 47.03C62.1202 46.5973 62.4097 46.2246 62.7313 45.912C63.0529 45.5994 63.3746 45.3389 63.6963 45.1306C64.0179 44.9142 64.3274 44.7538 64.6249 44.6497C64.9225 44.5455 65.1798 44.4854 65.3969 44.4693C65.5095 44.4613 65.5577 44.4734 65.5416 44.5055C65.5336 44.5375 65.5054 44.5735 65.4572 44.6136C65.409 44.6537 65.3647 44.6938 65.3245 44.7339C65.2924 44.7739 65.3084 44.798 65.3727 44.8059C65.429 44.822 65.4733 44.8381 65.5054 44.8541C65.5456 44.8701 65.5858 44.8902 65.6261 44.9142L65.7226 44.8059C65.7788 44.766 65.8311 44.7459 65.8793 44.7459C65.9356 44.7459 65.9838 44.7538 66.0241 44.7699C66.0643 44.778 66.0965 44.7819 66.1206 44.7819C66.1447 44.7819 66.1608 44.7579 66.1688 44.7098C66.1849 44.6217 66.2131 44.5735 66.2533 44.5655C66.3015 44.5495 66.406 44.5415 66.5668 44.5415C66.6633 44.5415 66.8081 44.5696 67.0011 44.6256C67.202 44.6818 67.4192 44.778 67.6524 44.9142C67.8936 45.0505 68.1349 45.2347 68.3761 45.4672C68.6253 45.6916 68.8504 45.9802 69.0515 46.3328C69.2606 46.6775 69.4294 47.0902 69.5581 47.5711C69.6867 48.0519 69.7511 48.609 69.7511 49.2421ZM65.3969 45.7197C65.1154 45.888 64.8381 46.1164 64.5647 46.405C64.2913 46.6934 64.042 47.0261 63.8168 47.4028C63.5997 47.7794 63.4229 48.2002 63.2861 48.6651C63.1495 49.1299 63.0811 49.6188 63.0811 50.1318C63.0811 50.6848 63.1293 51.1857 63.2258 51.6345C63.3304 52.0834 63.4791 52.4681 63.6721 52.7887C63.8651 53.1013 64.0983 53.3457 64.3717 53.522C64.6531 53.6903 64.9707 53.7745 65.3245 53.7745C65.6381 53.7745 65.9477 53.6864 66.2533 53.51C66.5668 53.3337 66.8443 53.0692 67.0854 52.7166C67.3267 52.3639 67.5197 51.9271 67.6644 51.4061C67.8172 50.8852 67.8936 50.2801 67.8936 49.5908C67.8936 48.8935 67.8011 48.3085 67.6162 47.8356C67.4313 47.3627 67.2222 46.982 66.989 46.6934C66.7638 46.3969 66.5467 46.1886 66.3377 46.0683C66.1286 45.9401 65.9999 45.876 65.9517 45.876C65.8392 45.876 65.7507 45.876 65.6863 45.876C65.6301 45.876 65.5336 45.8239 65.3969 45.7197ZM76.0761 40.1774C76.0761 40.2256 76.068 40.3538 76.052 40.5622C76.0359 40.7625 76.0118 41.031 75.9796 41.3676C75.9554 41.7042 75.9232 42.097 75.8831 42.5458C75.8429 42.9866 75.8027 43.4635 75.7625 43.9765C76.2691 43.9124 76.7475 43.8642 77.1977 43.8322C77.6561 43.7921 78.0421 43.772 78.3557 43.772C78.4602 43.772 78.5527 43.7921 78.6331 43.8322C78.7134 43.8723 78.7778 43.9204 78.8261 43.9765C78.8823 44.0246 78.9266 44.0807 78.9587 44.1448C78.9909 44.2009 79.011 44.249 79.0191 44.289C79.0191 44.3291 79.0231 44.3692 79.0311 44.4092C79.0391 44.4413 79.0432 44.4774 79.0432 44.5175C79.0432 44.6777 78.9708 44.8381 78.8261 44.9984C78.6893 45.1586 78.4803 45.2588 78.1989 45.2989L75.6298 45.5754C75.5896 46.1524 75.5534 46.7455 75.5212 47.3546C75.4891 47.9638 75.4569 48.5729 75.4248 49.182C75.4006 49.7832 75.3805 50.3763 75.3645 50.9613C75.3484 51.5464 75.3403 52.0994 75.3403 52.6204C75.3403 52.957 75.3484 53.2295 75.3645 53.4379C75.3805 53.6463 75.3886 53.7825 75.3886 53.8466C75.3886 53.9829 75.3604 54.1191 75.3041 54.2554C75.2559 54.3837 75.1956 54.4999 75.1232 54.6041C75.0589 54.7162 74.9865 54.8044 74.9061 54.8685C74.8337 54.9407 74.7734 54.9767 74.7252 54.9767C74.4357 54.9767 74.2066 54.8846 74.0377 54.7002C73.8688 54.5239 73.7402 54.2835 73.6518 53.9789C73.5713 53.6744 73.5191 53.3257 73.495 52.933C73.4707 52.5402 73.4587 52.1315 73.4587 51.7067C73.4587 50.7048 73.4869 49.703 73.5432 48.7011C73.5995 47.6913 73.6798 46.7215 73.7844 45.7918L72.2768 45.9721C72.2526 45.9721 72.2284 45.9761 72.2043 45.9841C72.1802 45.9922 72.1521 45.9961 72.12 45.9961C71.9671 45.9961 71.8466 45.9601 71.7581 45.888C71.6616 45.8158 71.5893 45.7317 71.5409 45.6355C71.4927 45.5394 71.4646 45.4431 71.4566 45.347C71.4405 45.2428 71.4325 45.1627 71.4325 45.1065C71.4325 44.9943 71.4485 44.8902 71.4807 44.7939C71.5128 44.6978 71.5732 44.6376 71.6616 44.6136C71.8304 44.5495 72.1239 44.4814 72.5421 44.4092C72.9682 44.3291 73.4466 44.249 73.9773 44.1688C74.0659 43.5196 74.1543 42.9265 74.2427 42.3895C74.3393 41.8445 74.4316 41.3757 74.5202 40.9829C74.6086 40.5822 74.689 40.2736 74.7614 40.0573C74.8418 39.8328 74.9102 39.7206 74.9664 39.7206C74.9825 39.7206 75.0025 39.7246 75.0268 39.7327C75.0509 39.7406 75.0709 39.7447 75.087 39.7447C75.1352 39.7447 75.1714 39.7206 75.1956 39.6725C75.2277 39.6165 75.2841 39.5884 75.3645 39.5884C75.4368 39.5884 75.5132 39.6124 75.5936 39.6605C75.682 39.7006 75.7584 39.7527 75.8227 39.8168C75.8952 39.8809 75.9554 39.949 76.0037 40.0211C76.052 40.0852 76.0761 40.1373 76.0761 40.1774ZM87.8407 49.9274C87.8407 50.0156 87.8448 50.1198 87.8528 50.24C87.8609 50.3602 87.8649 50.4964 87.8649 50.6488C87.8649 50.8411 87.8367 51.0815 87.7805 51.3701C87.7242 51.6506 87.6317 51.9471 87.503 52.2597C87.3824 52.5723 87.2176 52.8849 87.0085 53.1975C86.7994 53.51 86.5421 53.7906 86.2366 54.039C85.931 54.2874 85.5692 54.4879 85.151 54.6401C84.741 54.8004 84.2706 54.8805 83.7399 54.8805C83.2655 54.8805 82.779 54.7883 82.2805 54.6041C81.7899 54.4277 81.3396 54.1512 80.9296 53.7745C80.5275 53.3898 80.1938 52.9049 79.9285 52.3198C79.6712 51.7267 79.5425 51.0215 79.5425 50.2039C79.5425 49.691 79.6069 49.1861 79.7355 48.6891C79.8722 48.1923 80.0491 47.7234 80.2662 47.2826C80.4914 46.8417 80.7526 46.437 81.0501 46.0683C81.3557 45.6916 81.6733 45.3711 82.003 45.1065C82.3407 44.834 82.6865 44.6217 83.0403 44.4693C83.4021 44.3171 83.7519 44.2409 84.0896 44.2409C84.6766 44.2409 85.1591 44.3331 85.5371 44.5175C85.923 44.7017 86.2285 44.9302 86.4537 45.2027C86.6789 45.4753 86.8357 45.7678 86.9241 46.0803C87.0205 46.3849 87.0689 46.6614 87.0689 46.9099C87.0689 47.1503 87.0085 47.4268 86.8878 47.7394C86.7753 48.0439 86.5864 48.3365 86.321 48.617C86.0557 48.8895 85.7099 49.122 85.2837 49.3143C84.8576 49.4987 84.3349 49.5908 83.7158 49.5908C83.386 49.5908 83.0885 49.5467 82.8232 49.4586C82.5659 49.3624 82.3367 49.2462 82.1357 49.11C81.9347 48.9657 81.7618 48.8134 81.6171 48.6531C81.4803 48.4848 81.3637 48.3285 81.2673 48.1842C81.1226 48.6811 81.0501 49.2622 81.0501 49.9274C81.0501 50.3843 81.1146 50.797 81.2432 51.1657C81.3799 51.5264 81.5648 51.8349 81.798 52.0914C82.0312 52.3479 82.3085 52.5442 82.6303 52.6804C82.9519 52.8168 83.3057 52.8849 83.6916 52.8849C84.1741 52.8849 84.5962 52.8047 84.958 52.6444C85.3199 52.4761 85.6335 52.2677 85.8989 52.0193C86.1723 51.7708 86.4055 51.5024 86.5984 51.2138C86.7994 50.9173 86.9723 50.6488 87.1171 50.4083C87.2618 50.1598 87.3864 49.9555 87.491 49.7952C87.6035 49.6349 87.7121 49.5588 87.8166 49.5667C87.8649 49.5667 87.889 49.6068 87.889 49.687C87.889 49.7271 87.885 49.7672 87.8769 49.8072C87.8689 49.8473 87.8569 49.8873 87.8407 49.9274ZM84.2103 45.4552C84.0655 45.4552 83.8766 45.4873 83.6434 45.5514C83.4182 45.6074 83.1771 45.7116 82.9197 45.864C82.6705 46.0162 82.4212 46.2246 82.1719 46.4891C81.9226 46.7455 81.7055 47.0742 81.5206 47.4749C81.6332 47.4188 81.7296 47.3707 81.8101 47.3306C81.8985 47.2905 81.9588 47.2705 81.991 47.2705C82.0071 47.2705 82.0312 47.2866 82.0633 47.3186C82.2483 47.6312 82.4774 47.8556 82.7508 47.9919C83.0323 48.1201 83.3459 48.1842 83.6916 48.1842C83.965 48.1842 84.1982 48.1402 84.3912 48.0519C84.5922 47.9558 84.7571 47.8356 84.8857 47.6913C85.0144 47.547 85.1069 47.3908 85.1631 47.2225C85.2194 47.0461 85.2476 46.8738 85.2476 46.7055C85.2476 46.3448 85.1551 46.0482 84.9701 45.8158C84.7852 45.5754 84.5319 45.4552 84.2103 45.4552ZM93.0922 38.2659C93.0922 38.3782 93.0842 38.5985 93.0681 38.9272C93.0521 39.2558 93.032 39.6525 93.0079 40.1173C92.9837 40.5742 92.9556 41.0792 92.9234 41.6322C92.8993 42.1772 92.8712 42.7261 92.839 43.2792C92.8068 43.8241 92.7787 44.3531 92.7545 44.8661C92.7304 45.379 92.7144 45.8278 92.7063 46.2126C92.6902 46.445 92.6781 46.7015 92.6701 46.982C92.6701 47.2625 92.6701 47.563 92.6701 47.8836C92.6701 48.3085 92.6701 48.7532 92.6701 49.2181C92.6781 49.675 92.6862 50.1278 92.6942 50.5766C92.7023 51.0254 92.7104 51.4582 92.7184 51.875C92.7345 52.2837 92.7465 52.6525 92.7545 52.981C92.7626 53.3097 92.7667 53.5861 92.7667 53.8106C92.7747 54.0269 92.7787 54.1632 92.7787 54.2193C92.7787 54.3316 92.7586 54.4157 92.7184 54.4718C92.6862 54.5359 92.642 54.576 92.5858 54.5921C92.5374 54.6161 92.4852 54.62 92.4289 54.6041C92.3726 54.596 92.3244 54.58 92.2842 54.5559C92.2359 54.5319 92.1958 54.5038 92.1636 54.4718C92.1394 54.4397 92.1193 54.4157 92.1033 54.3997C92.0872 54.3837 92.0711 54.3796 92.055 54.3876C92.047 54.3957 92.039 54.4277 92.0309 54.4838C92.0067 54.6922 91.9585 54.8485 91.8861 54.9527C91.8218 55.0569 91.7494 55.125 91.669 55.1571C91.5967 55.1971 91.5283 55.2092 91.464 55.1931C91.3997 55.1771 91.3595 55.1491 91.3434 55.109C91.3273 55.0689 91.2992 55.0449 91.259 55.0368C91.2268 55.0288 91.1906 55.0209 91.1504 55.0128C91.1102 55.0128 91.07 55.0008 91.0297 54.9767C90.9976 54.9607 90.9775 54.9206 90.9695 54.8565C90.9051 54.584 90.8649 54.2394 90.8488 53.8226C90.8328 53.3978 90.8247 52.921 90.8247 52.392C90.8247 51.9351 90.8288 51.4422 90.8368 50.9132C90.8449 50.3843 90.8488 49.8433 90.8488 49.2903C90.8488 48.9696 90.8488 48.6531 90.8488 48.3405C90.8488 48.0199 90.8408 47.6953 90.8247 47.3667V46.6093C90.8247 45.9601 90.8408 45.3109 90.873 44.6618C90.9051 44.0045 90.9454 43.3753 90.9936 42.7743C91.0419 42.1731 91.0941 41.6081 91.1504 41.0792C91.2067 40.5502 91.2549 40.0813 91.2951 39.6725C91.3354 39.2638 91.3675 38.9312 91.3917 38.6747C91.4158 38.4182 91.4238 38.2579 91.4158 38.1938C91.4077 38.1377 91.4117 38.0976 91.4278 38.0736C91.4519 38.0495 91.4801 38.0375 91.5122 38.0375C91.5524 38.0295 91.5926 38.0255 91.6329 38.0255C91.6731 38.0174 91.7092 38.0054 91.7414 37.9895C91.7977 37.9574 91.8419 37.9494 91.874 37.9653C91.9143 37.9734 91.9465 37.9895 91.9706 38.0135C91.9947 38.0375 92.0148 38.0656 92.0309 38.0976C92.055 38.1216 92.0872 38.1337 92.1274 38.1337C92.1756 38.1257 92.2118 38.1137 92.2359 38.0976C92.2681 38.0736 92.2922 38.0536 92.3083 38.0375C92.3324 38.0135 92.3525 37.9934 92.3686 37.9774C92.3927 37.9614 92.4208 37.9574 92.4531 37.9653C92.5174 37.9814 92.5777 37.9934 92.634 38.0015C92.6983 38.0015 92.7304 37.9895 92.7304 37.9653C92.7465 37.9012 92.7706 37.8733 92.8028 37.8812C92.8349 37.8812 92.8752 37.9012 92.9234 37.9413C92.9717 37.9814 93.0119 38.0255 93.044 38.0736C93.0762 38.1137 93.0922 38.1778 93.0922 38.2659Z" fill="white"/>
<path d="M19.0299 25.2145H14.5522V20.6875H19.0299V25.2145ZM19.0299 13.897H14.5522V18.424H19.0299V13.897ZM25.7463 34.2685H21.2687V38.7955H25.7463V34.2685ZM25.7463 13.897H21.2687V18.424H25.7463V13.897ZM25.7463 27.478H21.2687V32.005H25.7463V27.478ZM25.7463 7.10656H21.2687V11.6335H25.7463V7.10656ZM25.7463 20.6875H21.2687V25.2145H25.7463V20.6875ZM19.0299 7.10656H14.5522V11.6335H19.0299V7.10656ZM12.3134 20.6875H7.83582V25.2145H12.3134V20.6875ZM12.3134 34.2685H7.83582V38.7955H12.3134V34.2685ZM12.3134 27.478H7.83582V32.005H12.3134V27.478ZM30.4478 4.84306V52.3765H33.5821V54.64H30.4478H22.388H11.1941H3.13433H0V52.3765H3.13433V4.84306H0V2.57956H3.13433H6.26866V0.316063H27.3134V2.57956H30.4478H33.5821V4.84306H30.4478ZM20.1492 46.7177C20.1492 44.8458 18.6425 43.3225 16.791 43.3225C14.9396 43.3225 13.4329 44.8458 13.4329 46.7177V52.3765H20.1492V46.7177ZM28.2089 4.84306H5.37313V52.3765H11.1941V46.7177C11.1941 43.5964 13.7049 41.059 16.791 41.059C19.8772 41.059 22.388 43.5964 22.388 46.7177V52.3765H28.2089V4.84306ZM19.0299 34.2685H14.5522V38.7955H19.0299V34.2685ZM19.0299 27.478H14.5522V32.005H19.0299V27.478ZM12.3134 13.897H7.83582V18.424H12.3134V13.897ZM12.3134 7.10656H7.83582V11.6335H12.3134V7.10656Z" fill="white"/>
</svg>
