<svg width="90" height="42" viewBox="0 0 90 42" fill="none" xmlns="http://www.w3.org/2000/svg">
<path d="M36.7739 4.15316C36.7852 4.25412 36.7909 4.46453 36.7909 4.78435C36.7909 5.0985 36.7852 5.4856 36.7739 5.94563C36.7682 6.40574 36.7569 6.91907 36.7399 7.48566C36.7286 8.05238 36.7117 8.64143 36.6891 9.25295C36.6664 9.85887 36.641 10.4705 36.6127 11.0875C36.5901 11.6991 36.5647 12.2797 36.5364 12.8295C36.5081 13.3794 36.477 13.8815 36.4431 14.3359C36.4092 14.7848 36.3753 15.1495 36.3414 15.43C36.3414 15.4636 36.3244 15.4945 36.2905 15.5225C36.2622 15.545 36.2311 15.587 36.1972 15.6487C36.1633 15.7048 36.1293 15.7357 36.0954 15.7413C36.0615 15.7469 36.0333 15.7469 36.0106 15.7413C35.988 15.7357 35.971 15.7357 35.9597 15.7413C35.9484 15.7469 35.9484 15.775 35.9597 15.8255C35.971 15.8591 35.9513 15.8872 35.9003 15.9097C35.8551 15.9265 35.8156 15.9208 35.7816 15.8927C35.7364 15.8591 35.6827 15.8199 35.6205 15.775C35.5583 15.7244 35.5187 15.6992 35.5018 15.6992C35.4679 15.6936 35.4566 15.7076 35.4679 15.7413C35.4792 15.775 35.4933 15.8114 35.5102 15.8507C35.5329 15.89 35.547 15.9265 35.5527 15.9601C35.5639 15.9994 35.547 16.0218 35.5018 16.0275C35.4169 16.0386 35.318 16.0191 35.205 15.9685C35.0975 15.9181 34.9958 15.8591 34.8996 15.7919C34.8205 15.73 34.7018 15.5926 34.5434 15.3794C34.3852 15.1663 34.1957 14.897 33.9752 14.5715C33.7604 14.2405 33.5201 13.8647 33.2544 13.4438C32.9943 13.0231 32.7229 12.5742 32.4403 12.0974C32.1576 11.6205 31.8692 11.1268 31.5752 10.6163C31.2813 10.1058 30.9957 9.59798 30.7186 9.09307C30.4417 8.58249 30.1759 8.08598 29.9215 7.60347C29.6671 7.12103 29.4381 6.67219 29.2345 6.25703C29.212 6.49267 29.1921 6.81524 29.1752 7.22484C29.1582 7.62874 29.1412 8.08045 29.1243 8.57969C29.113 9.0734 29.1017 9.59518 29.0904 10.145C29.0791 10.6948 29.0678 11.2362 29.0565 11.7692C29.0508 12.3021 29.0452 12.8071 29.0396 13.284C29.0339 13.7609 29.0282 14.1704 29.0225 14.5127C29.0225 14.737 29.0168 14.897 29.0055 14.9923C28.9999 15.0821 28.9915 15.1438 28.9801 15.1775C28.9745 15.2111 28.966 15.2364 28.9547 15.2532C28.949 15.2644 28.949 15.3037 28.9547 15.371C28.9547 15.5506 28.9434 15.716 28.9208 15.8675C28.8982 16.0134 28.8473 16.0947 28.7681 16.1115C28.7229 16.134 28.6805 16.1256 28.6409 16.0863C28.6014 16.0527 28.5505 16.0443 28.4882 16.0611C28.4713 16.0611 28.4487 16.0751 28.4204 16.1031C28.3978 16.1369 28.3554 16.1537 28.2932 16.1537C28.2423 16.1537 28.1801 16.1312 28.1066 16.0863C28.0331 16.0415 27.9851 15.9601 27.9625 15.8423L27.9285 15.5309C27.9229 15.4972 27.9144 15.4748 27.9031 15.4636C27.8975 15.4524 27.889 15.4356 27.8776 15.4131C27.872 15.3907 27.8663 15.3542 27.8607 15.3037C27.855 15.2476 27.8494 15.155 27.8438 15.026C27.8438 14.9923 27.8494 14.8352 27.8607 14.5547C27.872 14.2686 27.8861 13.9012 27.9031 13.4523C27.9257 13.0035 27.9483 12.4929 27.9709 11.9206C27.9992 11.3485 28.0275 10.7565 28.0557 10.145C28.0897 9.53344 28.1207 8.92472 28.149 8.3188C28.1829 7.71288 28.2169 7.1519 28.2508 6.63572C28.2904 6.11957 28.3272 5.67077 28.361 5.28926C28.3949 4.90216 28.4261 4.62723 28.4543 4.46453C28.4261 4.39718 28.4034 4.33272 28.3865 4.27095C28.3752 4.20926 28.3695 4.15316 28.3695 4.10266C28.3639 4.069 28.3667 4.04656 28.378 4.03534C28.3949 4.02412 28.4148 4.0157 28.4374 4.0101C28.4656 3.99888 28.4939 3.98765 28.5221 3.97643C28.5505 3.96521 28.5787 3.94277 28.607 3.90911C28.6183 3.89227 28.6268 3.85301 28.6324 3.79129C28.6438 3.72396 28.6635 3.69031 28.6918 3.69031C28.771 3.69031 28.836 3.67347 28.8868 3.63981C28.9377 3.60054 29.0084 3.5753 29.0988 3.56407C29.0988 3.4687 29.1243 3.40699 29.1752 3.37893C29.1978 3.3621 29.2232 3.35649 29.2515 3.3621C29.3477 3.37333 29.4211 3.41259 29.472 3.47992C29.5286 3.54164 29.5709 3.60054 29.5992 3.65665C29.6275 3.72396 29.6501 3.77446 29.6671 3.80812C29.684 3.84178 29.7066 3.88948 29.7349 3.95118C29.7745 4.0129 29.8508 4.14475 29.9639 4.34671C30.0826 4.5487 30.2268 4.80117 30.3964 5.10408C30.566 5.40708 30.7582 5.7493 30.9732 6.13081C31.188 6.50667 31.4113 6.90783 31.6431 7.33425C31.8805 7.75502 32.1236 8.18699 32.3724 8.63023C32.6212 9.0678 32.8643 9.49697 33.1017 9.91781C33.3392 10.3386 33.5653 10.7397 33.7802 11.1212C33.995 11.5027 34.1901 11.8477 34.3654 12.1563C34.5407 12.4593 34.6876 12.7146 34.8063 12.9221C34.9251 13.1241 35.007 13.2587 35.0523 13.326C35.1654 13.4887 35.2445 13.5813 35.2897 13.6037C35.335 13.6207 35.3887 13.5673 35.4509 13.4438C35.4792 13.3878 35.5046 13.2587 35.5272 13.0567C35.5555 12.8492 35.5809 12.5883 35.6035 12.2741C35.6318 11.9599 35.6544 11.6037 35.6714 11.2053C35.694 10.807 35.7138 10.389 35.7308 9.95148C35.7477 9.51384 35.7619 9.065 35.7731 8.60496C35.7844 8.14485 35.7901 7.69888 35.7901 7.26684C35.7957 6.83489 35.7957 6.42814 35.7901 6.04663C35.7901 5.66512 35.7816 5.32855 35.7647 5.0368C35.759 4.87968 35.7562 4.73946 35.7562 4.61599C35.7562 4.50941 35.7619 4.41124 35.7731 4.32148C35.7844 4.2317 35.8043 4.18682 35.8325 4.18682C35.8721 4.15877 35.906 4.14194 35.9343 4.13633C35.9682 4.12511 35.9936 4.1223 36.0106 4.12791C36.0333 4.12791 36.053 4.13072 36.07 4.13633C36.0869 4.14194 36.101 4.14194 36.1124 4.13633C36.1237 4.13072 36.1293 4.1223 36.1293 4.11109C36.1293 4.09986 36.1293 4.08584 36.1293 4.069C36.135 4.05217 36.1435 4.03534 36.1548 4.01851C36.1661 3.99607 36.1915 3.97923 36.2311 3.96802C36.2763 3.95118 36.3103 3.94277 36.3329 3.94277C36.3611 3.93716 36.3837 3.93716 36.4008 3.94277C36.4177 3.94838 36.4318 3.95399 36.4431 3.95961C36.4544 3.96521 36.4714 3.96241 36.494 3.95118C36.5392 3.92874 36.5759 3.90911 36.6043 3.89227C36.6325 3.86984 36.6579 3.86142 36.6806 3.86703C36.7032 3.87264 36.7202 3.89789 36.7315 3.94277C36.7484 3.98204 36.7625 4.05217 36.7739 4.15316ZM44.9272 12.8884C44.9272 12.9502 44.93 13.0231 44.9357 13.1072C44.9414 13.1914 44.9442 13.2868 44.9442 13.3934C44.9442 13.5281 44.9243 13.6963 44.8848 13.8984C44.8452 14.0946 44.7802 14.3023 44.6897 14.5211C44.6049 14.7399 44.489 14.9587 44.342 15.1775C44.195 15.3962 44.0141 15.5926 43.7993 15.7665C43.5844 15.9405 43.33 16.0807 43.036 16.1874C42.7477 16.2996 42.4169 16.3556 42.0438 16.3556C41.7102 16.3556 41.3682 16.2911 41.0176 16.1621C40.6727 16.0386 40.3561 15.8451 40.0678 15.5814C39.7851 15.3121 39.5505 14.9726 39.3639 14.5631C39.183 14.148 39.0925 13.6543 39.0925 13.082C39.0925 12.723 39.1378 12.3695 39.2282 12.0217C39.3243 11.6738 39.4487 11.3456 39.6013 11.037C39.7597 10.7285 39.9433 10.4451 40.1525 10.1871C40.3674 9.92341 40.5907 9.69899 40.8225 9.51384C41.06 9.32309 41.3031 9.17441 41.5519 9.0678C41.8063 8.96119 42.0522 8.90792 42.2897 8.90792C42.7024 8.90792 43.0417 8.97246 43.3074 9.10147C43.5788 9.23055 43.7936 9.39043 43.9519 9.58118C44.1103 9.77193 44.2205 9.97668 44.2827 10.1955C44.3505 10.4086 44.3845 10.6023 44.3845 10.7761C44.3845 10.9444 44.342 11.138 44.2572 11.3569C44.178 11.57 44.0452 11.7748 43.8586 11.9712C43.6721 12.1619 43.4289 12.3246 43.1293 12.4593C42.8297 12.5883 42.4621 12.6528 42.0268 12.6528C41.7949 12.6528 41.5858 12.622 41.3992 12.5602C41.2183 12.4929 41.0572 12.4116 40.9158 12.3162C40.7744 12.2152 40.6529 12.1087 40.5512 11.9964C40.455 11.8786 40.373 11.7692 40.3052 11.6682C40.2035 12.0161 40.1525 12.4228 40.1525 12.8884C40.1525 13.2082 40.1979 13.4972 40.2883 13.7553C40.3844 14.0077 40.5144 14.2237 40.6784 14.4033C40.8424 14.5827 41.0374 14.7202 41.2636 14.8156C41.4897 14.911 41.7385 14.9587 42.0098 14.9587C42.3491 14.9587 42.6459 14.9026 42.9003 14.7904C43.1547 14.6725 43.3752 14.5266 43.5618 14.3528C43.7541 14.1788 43.918 13.9909 44.0537 13.7889C44.195 13.5813 44.3166 13.3934 44.4184 13.225C44.5201 13.0511 44.6077 12.9081 44.6813 12.7959C44.7604 12.6836 44.8367 12.6304 44.9102 12.636C44.9442 12.636 44.9611 12.664 44.9611 12.7201C44.9611 12.7482 44.9583 12.7763 44.9526 12.8043C44.947 12.8324 44.9385 12.8604 44.9272 12.8884ZM42.3745 9.75786C42.2727 9.75786 42.1399 9.78033 41.9759 9.8252C41.8176 9.86447 41.6481 9.93741 41.4671 10.044C41.2919 10.1506 41.1166 10.2965 40.9413 10.4816C40.766 10.6611 40.6133 10.8912 40.4833 11.1717C40.5625 11.1324 40.6303 11.0988 40.6869 11.0707C40.749 11.0426 40.7914 11.0286 40.8141 11.0286C40.8254 11.0286 40.8424 11.0398 40.8649 11.0623C40.995 11.2811 41.1561 11.4382 41.3483 11.5335C41.5463 11.6233 41.7668 11.6682 42.0098 11.6682C42.2021 11.6682 42.366 11.6374 42.5017 11.5756C42.6431 11.5083 42.759 11.4241 42.8494 11.3231C42.9399 11.2221 43.005 11.1128 43.0445 10.995C43.0841 10.8715 43.1038 10.7509 43.1038 10.6331C43.1038 10.3806 43.0388 10.173 42.9088 10.0103C42.7788 9.84207 42.6007 9.75786 42.3745 9.75786ZM49.1116 4.97786C49.1172 5.09009 49.1116 5.21632 49.0946 5.35655C49.0833 5.49125 49.0607 5.62306 49.0267 5.75212C48.9985 5.88118 48.9561 5.99616 48.8995 6.09717C48.8486 6.19816 48.7865 6.26828 48.7129 6.3075C48.5264 6.40291 48.3625 6.45062 48.2211 6.45062C48.108 6.45062 48.009 6.42532 47.9243 6.37485C47.8451 6.31874 47.766 6.25703 47.6869 6.18968C47.5737 6.09992 47.4776 5.9821 47.3984 5.83623C47.325 5.69042 47.2882 5.55012 47.2882 5.41549C47.2882 5.3089 47.3052 5.17985 47.3391 5.02839C47.3787 4.87128 47.4267 4.71981 47.4833 4.57394C47.5398 4.42806 47.5992 4.29625 47.6614 4.1784C47.7292 4.05498 47.7942 3.97083 47.8564 3.92594C47.9526 3.8474 48.0402 3.80532 48.1193 3.79971C48.2041 3.78848 48.272 3.79129 48.3228 3.80812C48.4472 3.83617 48.5575 3.87264 48.6536 3.91753C48.7497 3.9568 48.8289 4.02132 48.8911 4.11109C48.9589 4.19524 49.0098 4.30741 49.0437 4.44771C49.0776 4.58793 49.1003 4.7647 49.1116 4.97786ZM48.4161 8.73964C48.4444 8.76771 48.4642 8.86018 48.4755 9.01733C48.4924 9.17441 48.501 9.37916 48.501 9.63165C48.501 9.8 48.4981 9.98228 48.4924 10.1787C48.4868 10.375 48.4784 10.577 48.467 10.7846C48.4614 10.9922 48.4529 11.2026 48.4416 11.4157C48.4303 11.6233 48.4218 11.8225 48.4161 12.0133C48.3992 12.3274 48.3879 12.6192 48.3822 12.8884C48.3822 13.1521 48.3822 13.4074 48.3822 13.6543C48.3822 13.9797 48.3851 14.277 48.3908 14.5463C48.3964 14.8156 48.3992 15.0401 48.3992 15.2195C48.3992 15.4159 48.3908 15.5674 48.3737 15.674C48.3625 15.775 48.3341 15.8311 48.2889 15.8423C48.238 15.8535 48.1956 15.8787 48.1617 15.9181C48.1278 15.9517 48.0967 15.9853 48.0684 16.0191C48.0402 16.0527 48.0063 16.0807 47.9667 16.1031C47.9327 16.1312 47.8903 16.1396 47.8394 16.1284C47.8112 16.1228 47.7631 16.0975 47.6953 16.0527C47.6274 16.0078 47.5539 15.9545 47.4748 15.8927C47.4013 15.8255 47.3307 15.7497 47.2627 15.6656C47.1949 15.5814 47.1497 15.4945 47.1271 15.4047C47.1158 15.3597 47.1045 15.27 47.0931 15.1354C47.0874 15.0007 47.0818 14.838 47.0762 14.6473C47.0705 14.4565 47.0649 14.2461 47.0592 14.0162C47.0536 13.7805 47.0479 13.5449 47.0422 13.3092C47.0422 13.068 47.0422 12.8324 47.0422 12.6023C47.0422 12.3723 47.0422 12.1647 47.0422 11.9796C47.0422 11.6934 47.0507 11.4017 47.0678 11.1043C47.0903 10.807 47.113 10.5293 47.1355 10.2712C47.1638 10.0131 47.1892 9.78873 47.2119 9.59798C47.2402 9.40163 47.26 9.26422 47.2712 9.18561C47.2939 9.05093 47.3164 8.94719 47.3391 8.87425C47.3674 8.79578 47.3957 8.73964 47.424 8.7059C47.4578 8.6723 47.4889 8.65263 47.5172 8.64703C47.5512 8.63583 47.585 8.62736 47.6189 8.62183C47.6869 8.61056 47.7631 8.60776 47.8479 8.61343C47.9384 8.61896 48.0232 8.62736 48.1023 8.63863C48.1816 8.6499 48.2494 8.6667 48.3059 8.6891C48.3681 8.7059 48.4048 8.72284 48.4161 8.73964ZM53.7623 15.5814C54.1016 15.5814 54.438 15.6122 54.7715 15.674C55.1108 15.7357 55.4161 15.8395 55.6875 15.9853C55.9588 16.1312 56.1765 16.322 56.3405 16.5576C56.5101 16.7988 56.5949 17.099 56.5949 17.4581C56.5949 17.7218 56.5327 17.9882 56.4083 18.2575C56.2839 18.5269 56.1115 18.7877 55.8911 19.0402C55.6706 19.2926 55.4104 19.5311 55.1108 19.7555C54.8168 19.9799 54.4973 20.1735 54.1524 20.3362C53.8076 20.5045 53.4485 20.6363 53.0754 20.7317C52.7022 20.827 52.3291 20.8748 51.9559 20.8748C51.6506 20.8748 51.3623 20.8411 51.091 20.7738C50.8252 20.7121 50.5906 20.6167 50.3871 20.4877C50.1892 20.3586 50.0309 20.1959 49.9121 19.9996C49.7934 19.8088 49.7341 19.5816 49.7341 19.3179C49.7341 19.0599 49.7849 18.8158 49.8867 18.5858C49.9885 18.3613 50.1213 18.1538 50.2853 17.963C50.4549 17.7722 50.6471 17.5983 50.862 17.4412C51.0768 17.2897 51.2973 17.1607 51.5235 17.0541C51.7553 16.9531 51.9814 16.8746 52.2019 16.8185C52.4224 16.7623 52.6231 16.7343 52.8041 16.7343C52.9001 16.7455 52.9651 16.7568 52.9991 16.768C53.0331 16.7848 53.05 16.8017 53.05 16.8185C53.05 16.8353 53.0415 16.8549 53.0246 16.8774C53.0076 16.9055 52.9991 16.9279 52.9991 16.9447C53.0104 16.9784 53.0217 17.0176 53.0331 17.0625C53.0444 17.1074 53.05 17.1523 53.05 17.1972C53.05 17.2532 53.0387 17.301 53.016 17.3403C52.9991 17.3851 52.9595 17.4132 52.8974 17.4244C52.6599 17.4805 52.397 17.5759 52.1086 17.7106C51.8259 17.8452 51.5574 18.0022 51.303 18.1818C51.0542 18.3669 50.845 18.5633 50.6753 18.7709C50.5058 18.9841 50.4182 19.1972 50.4125 19.4105C50.4125 19.5114 50.4605 19.5844 50.5567 19.6293C50.6528 19.6742 50.7885 19.6966 50.9638 19.6966C51.1786 19.6966 51.4358 19.6657 51.7354 19.6041C52.0351 19.5423 52.3461 19.4525 52.6684 19.3347C52.9907 19.2226 53.3072 19.0823 53.6182 18.914C53.9348 18.7512 54.2175 18.5661 54.4662 18.3585C54.7207 18.1509 54.9243 17.9266 55.0769 17.6853C55.2295 17.4441 55.3058 17.186 55.3058 16.9111C55.3058 16.7764 55.2776 16.6699 55.221 16.5913C55.1702 16.5183 55.1079 16.4622 55.0344 16.423C54.9667 16.3836 54.8931 16.3584 54.814 16.3472C54.7405 16.3416 54.6783 16.3388 54.6274 16.3388C54.226 16.3388 53.8161 16.3612 53.3977 16.4062C52.9793 16.4566 52.5977 16.5071 52.2527 16.5576C51.9136 16.6137 51.6337 16.6642 51.4132 16.7091C51.1928 16.7596 51.0768 16.7848 51.0655 16.7848C50.9411 16.7848 50.8253 16.7596 50.7178 16.7091C50.6161 16.6586 50.5284 16.5941 50.4549 16.5156C50.3814 16.437 50.322 16.3444 50.2768 16.2378C50.2372 16.1369 50.2175 16.0331 50.2175 15.9265C50.2175 15.8423 50.2683 15.7216 50.3701 15.5646C50.4719 15.4019 50.6047 15.2279 50.7686 15.0428C50.9326 14.8577 51.1192 14.6754 51.3284 14.4958C51.5432 14.3163 51.7581 14.1676 51.973 14.0498C51.7807 13.9488 51.6082 13.8254 51.4556 13.6795C51.303 13.5337 51.1729 13.3765 51.0655 13.2082C50.9638 13.0399 50.8845 12.8632 50.8281 12.6781C50.7715 12.4873 50.7433 12.2937 50.7433 12.0974C50.7433 11.7159 50.797 11.3793 50.9044 11.0875C51.0118 10.7901 51.1531 10.5321 51.3284 10.3133C51.5037 10.0945 51.6987 9.91214 51.9136 9.76626C52.134 9.62038 52.3518 9.50257 52.5666 9.41283C52.7814 9.32309 52.985 9.26135 53.1772 9.22775C53.3694 9.18841 53.5305 9.16881 53.6606 9.16881C53.7228 9.16881 53.7737 9.17161 53.8133 9.17721C53.8585 9.18281 53.898 9.19128 53.9319 9.20248C54.0733 8.97799 54.2344 8.73964 54.4153 8.48715C54.6019 8.22906 54.7914 7.97657 54.9836 7.72975C55.1815 7.47726 55.3765 7.23891 55.5687 7.01442C55.7666 6.78443 55.9448 6.58243 56.103 6.4085C56.2669 6.22898 56.4055 6.08875 56.5186 5.98776C56.6317 5.88117 56.7079 5.82781 56.7476 5.82781C56.7984 5.82781 56.8606 5.86153 56.9341 5.92881C57.0076 5.99052 57.0783 6.06345 57.1461 6.14763C57.2141 6.22615 57.2705 6.30475 57.3157 6.38326C57.3666 6.4562 57.3921 6.50667 57.3921 6.53472C57.3921 6.56279 57.3808 6.58801 57.3582 6.61049C57.3356 6.6329 57.3242 6.65254 57.3242 6.66936C57.3242 6.69742 57.3384 6.72272 57.3666 6.74513C57.4006 6.76195 57.4486 6.78443 57.5108 6.81248C57.5222 6.82365 57.5306 6.8293 57.5362 6.8293C57.5419 6.8293 57.5447 6.83489 57.5447 6.84613C57.5447 6.86853 57.508 6.90783 57.4345 6.96394C57.3609 7.01442 57.2423 7.10703 57.0783 7.24164C56.9143 7.37072 56.7023 7.55307 56.4422 7.78869C56.1822 8.02431 55.8628 8.33567 55.4839 8.72284C55.3935 8.80691 55.3001 8.91072 55.2041 9.03413C55.1079 9.15761 55.0034 9.28942 54.8903 9.4297C55.0373 9.50824 55.1899 9.61198 55.3482 9.74106C55.5066 9.87007 55.6479 10.0215 55.7723 10.1955C55.9023 10.3638 56.0069 10.5573 56.086 10.7761C56.1709 10.995 56.2132 11.2307 56.2132 11.4831C56.2132 12.0217 56.1228 12.4733 55.9419 12.8379C55.761 13.2026 55.5263 13.4972 55.238 13.7215C54.9496 13.9404 54.6274 14.0975 54.2712 14.1928C53.915 14.2883 53.5645 14.3359 53.2195 14.3359C53.1348 14.3359 53.0528 14.3331 52.9737 14.3275C52.9001 14.3219 52.8267 14.3135 52.7532 14.3023C52.6231 14.3864 52.4761 14.4901 52.3121 14.6136C52.1482 14.737 51.9871 14.8717 51.8287 15.0176C51.6704 15.1635 51.5235 15.3121 51.3878 15.4636C51.2577 15.615 51.1587 15.7581 51.091 15.8927C51.3171 15.8872 51.5348 15.8703 51.744 15.8423C51.9531 15.8087 52.1623 15.7722 52.3715 15.7328C52.5864 15.6936 52.8069 15.6599 53.0331 15.6319C53.2592 15.5982 53.5023 15.5814 53.7623 15.5814ZM53.4994 10.2039C53.4994 10.0917 53.5645 9.90094 53.6945 9.63165C53.4288 9.71579 53.1913 9.84207 52.9821 10.0103C52.7729 10.1787 52.5949 10.3694 52.4479 10.5826C52.3008 10.7958 52.1878 11.0258 52.1086 11.2727C52.0295 11.5139 51.9899 11.7552 51.9899 11.9964C51.9899 12.1703 52.0097 12.3386 52.0492 12.5013C52.0945 12.6584 52.1623 12.8015 52.2527 12.9305C52.3432 13.0539 52.4592 13.155 52.6005 13.2335C52.7475 13.3064 52.9256 13.3429 53.1348 13.3429C53.3609 13.3429 53.5617 13.3036 53.737 13.225C53.9179 13.141 54.0762 13.0343 54.2119 12.9053C54.3476 12.7706 54.4605 12.622 54.551 12.4593C54.6472 12.2965 54.7235 12.1367 54.78 11.9796C54.8423 11.8169 54.8875 11.6654 54.9157 11.5251C54.9439 11.3849 54.9581 11.2727 54.9581 11.1885C54.9581 10.8519 54.9016 10.591 54.7885 10.4059C54.6811 10.2152 54.5539 10.0721 54.4069 9.97668C54.3277 10.0721 54.2457 10.1646 54.1609 10.2544C54.0761 10.3386 53.9885 10.4254 53.898 10.5153C53.8867 10.5265 53.8698 10.5321 53.8472 10.5321C53.8302 10.5321 53.8161 10.5237 53.8047 10.5069C53.7935 10.49 53.7737 10.4816 53.7454 10.4816C53.7285 10.4816 53.7115 10.49 53.6945 10.5069C53.6775 10.5237 53.655 10.5321 53.6267 10.5321C53.5871 10.5321 53.556 10.5097 53.5334 10.4648C53.5108 10.4199 53.4994 10.333 53.4994 10.2039ZM63.2047 10.3049C63.2161 10.3834 63.2246 10.4732 63.2302 10.5742C63.2359 10.6696 63.2386 10.7705 63.2386 10.8772C63.2386 11.1464 63.2274 11.4606 63.2047 11.8196C63.1821 12.1787 63.1539 12.6052 63.1199 13.0988C63.1086 13.2896 63.1001 13.5337 63.0945 13.8309C63.0889 14.1227 63.086 14.4257 63.086 14.7399C63.086 15.0091 63.0889 15.27 63.0945 15.5225C63.1058 15.775 63.1199 15.9966 63.1369 16.1874C63.1482 16.2715 63.1284 16.3164 63.0776 16.322C63.0266 16.3276 62.9701 16.322 62.908 16.3052C62.8797 16.2939 62.8542 16.2939 62.8316 16.3052C62.809 16.3164 62.7864 16.3304 62.7638 16.3472C62.7468 16.364 62.727 16.3752 62.7044 16.3809C62.6875 16.3921 62.662 16.3836 62.628 16.3556C62.5998 16.3332 62.5518 16.2996 62.4839 16.2547C62.416 16.2098 62.3426 16.1593 62.2634 16.1031C62.1899 16.0527 62.1192 15.9966 62.0513 15.9349C61.9836 15.8732 61.9326 15.8171 61.8987 15.7665C61.8648 15.688 61.8422 15.4945 61.8309 15.1859C61.8196 14.8773 61.8139 14.5042 61.8139 14.0666V12.9305C61.8196 12.6836 61.8309 12.4396 61.8479 12.1984C61.8648 11.9571 61.8846 11.7243 61.9072 11.4999C61.9298 11.2755 61.9496 11.0651 61.9666 10.8688C61.9836 10.6667 61.992 10.4845 61.992 10.3217C61.992 10.0636 61.9552 9.87007 61.8817 9.74106C61.8648 9.71866 61.8139 9.73266 61.7291 9.78313C61.6443 9.8336 61.5341 9.94021 61.3984 10.1029C61.2683 10.2656 61.1185 10.4957 60.9488 10.793C60.7849 11.0903 60.6096 11.4747 60.4231 11.9459C60.2422 12.4172 60.0556 12.9867 59.8634 13.6543C59.6768 14.3219 59.4986 15.1073 59.3291 16.0105C59.3121 16.0891 59.2895 16.1424 59.2612 16.1705C59.2386 16.2042 59.1934 16.221 59.1255 16.221C59.0803 16.221 59.0407 16.1845 59.0068 16.1115C58.9785 16.0443 58.9418 15.9881 58.8966 15.9433C58.7891 15.9433 58.6902 15.9321 58.5998 15.9097C58.5149 15.8816 58.4641 15.8114 58.4471 15.6992C58.4471 15.6599 58.4358 15.6235 58.4132 15.5898C58.3962 15.5562 58.3736 15.5197 58.3453 15.4804C58.3227 15.4356 58.3001 15.3907 58.2775 15.3458C58.2605 15.2953 58.252 15.2364 58.252 15.169C58.269 14.7764 58.2832 14.3499 58.2944 13.8899C58.3057 13.4242 58.317 12.9502 58.3284 12.4677C58.3453 11.9796 58.3594 11.4915 58.3708 11.0034C58.3821 10.5153 58.3962 10.0496 58.4132 9.60638C58.4301 9.15761 58.4442 8.74237 58.4556 8.36094C58.4725 7.97377 58.4923 7.63994 58.5149 7.35945C58.5828 6.52356 58.6506 5.86711 58.7185 5.39026C58.7863 4.90775 58.8287 4.62723 58.8457 4.5487C58.8626 4.49259 58.8796 4.45054 58.8966 4.42248C58.9135 4.39442 58.9276 4.37477 58.939 4.36353C58.9559 4.3523 58.9673 4.34388 58.9729 4.33831C58.9842 4.33272 58.9927 4.31866 58.9983 4.29625C59.0096 4.27377 59.0295 4.26254 59.0577 4.26254C59.0916 4.25695 59.1284 4.25695 59.168 4.26254C59.2075 4.26254 59.2443 4.26254 59.2782 4.26254C59.3121 4.25695 59.3404 4.24296 59.363 4.22048C59.4082 4.18682 59.445 4.15877 59.4733 4.13633C59.5072 4.11389 59.5637 4.10266 59.6428 4.10266C59.739 4.09144 59.8125 4.09425 59.8634 4.11109C59.9143 4.1223 59.9453 4.1756 59.9567 4.27095C59.9736 4.44488 59.9793 4.67211 59.9736 4.95263C59.968 5.23314 59.9538 5.54172 59.9312 5.87835C59.9086 6.21498 59.8831 6.57119 59.8549 6.94712C59.8266 7.31738 59.7955 7.68208 59.7615 8.04111C59.7334 8.40014 59.7051 8.74237 59.6768 9.0678C59.6542 9.38756 59.6372 9.66252 59.6258 9.89254C59.6146 10.0215 59.6062 10.1787 59.6005 10.3638C59.6005 10.5433 59.6005 10.7397 59.6005 10.9529C59.6005 11.1604 59.6005 11.3793 59.6005 11.6093C59.6005 11.8337 59.5976 12.0553 59.592 12.2741C59.7672 11.7356 59.9567 11.2671 60.1602 10.8688C60.3637 10.4648 60.5673 10.1282 60.7708 9.85887C60.9744 9.58958 61.1693 9.38476 61.356 9.24455C61.5482 9.10427 61.7178 9.02293 61.8648 9.00053C61.8987 8.99493 61.9581 9.00333 62.0428 9.02573C62.1333 9.0482 62.2266 9.0734 62.3228 9.10147C62.4189 9.12954 62.5065 9.16034 62.5856 9.19408C62.6648 9.22208 62.71 9.24175 62.7214 9.25295C62.744 9.28102 62.7779 9.32029 62.8231 9.37076C62.8684 9.41563 62.9136 9.47737 62.9588 9.55591C63.0096 9.63445 63.0549 9.73546 63.0945 9.85887C63.1397 9.98228 63.1765 10.131 63.2047 10.3049ZM67.3213 4.5487C67.3157 4.58793 67.3046 4.71416 67.2872 4.92739C67.2761 5.14055 67.2588 5.4099 67.2365 5.7353C67.2198 6.05504 67.1969 6.41415 67.1684 6.81248C67.1462 7.20517 67.1205 7.60074 67.092 7.99911C67.0698 8.39741 67.0468 8.78171 67.0246 9.15194C67.0072 9.51664 66.9933 9.8336 66.9822 10.1029C67.0559 9.97948 67.1517 9.85607 67.2706 9.73266C67.3893 9.60925 67.5304 9.49984 67.6943 9.40443C67.8639 9.30342 68.0563 9.22208 68.271 9.16034C68.4919 9.09867 68.7379 9.0678 69.0088 9.0678C69.3541 9.0678 69.6959 9.12954 70.0349 9.25295C70.38 9.37636 70.688 9.56711 70.9594 9.8252C71.2308 10.0777 71.4516 10.403 71.621 10.8014C71.7905 11.1942 71.8755 11.6626 71.8755 12.2068C71.8755 12.6612 71.8137 13.0736 71.6892 13.4438C71.5704 13.8141 71.4122 14.1452 71.2139 14.4369C71.0212 14.723 70.8012 14.9726 70.5523 15.1859C70.3038 15.3991 70.0523 15.5758 69.7973 15.716C69.543 15.8563 69.2971 15.9601 69.0595 16.0275C68.8226 16.0947 68.6163 16.1284 68.4405 16.1284C68.2599 16.1284 68.0903 16.1115 67.9319 16.0779C67.7791 16.0443 67.6437 16.0021 67.5248 15.9517C67.4116 15.9012 67.3213 15.8451 67.2532 15.7834C67.1913 15.7216 67.1573 15.6599 67.1517 15.5982C67.1406 15.4692 67.1379 15.3317 67.1434 15.1859C67.1546 15.0401 67.208 14.9194 67.3046 14.824C67.3949 14.7342 67.4713 14.681 67.5332 14.6641C67.6013 14.6473 67.6659 14.6782 67.7284 14.7567C67.7903 14.8352 67.827 14.9222 67.8388 15.0176C67.8555 15.113 67.8472 15.1859 67.8132 15.2364C67.7964 15.2644 67.7964 15.2897 67.8132 15.3121C67.8361 15.3289 67.8666 15.3458 67.9063 15.3626C67.9514 15.3738 68 15.3851 68.0508 15.3962C68.107 15.4019 68.1605 15.4047 68.2119 15.4047C68.4037 15.4047 68.6218 15.3289 68.865 15.1775C69.1137 15.0204 69.3451 14.8044 69.5604 14.5295C69.7751 14.2545 69.9557 13.932 70.103 13.5617C70.2496 13.1914 70.3202 12.7903 70.3146 12.3583C70.3093 12.0161 70.2669 11.7187 70.1878 11.4663C70.1085 11.2082 70.0099 10.9922 69.8911 10.8182C69.7723 10.6387 69.6368 10.4929 69.484 10.3806C69.3367 10.2684 69.1901 10.1842 69.0428 10.1282C68.9018 10.0664 68.7656 10.0271 68.6357 10.0103C68.5114 9.99348 68.4099 9.98795 68.3307 9.99348C67.9966 10.0328 67.7117 10.1478 67.4741 10.3386C67.2365 10.5237 67.0642 10.7593 66.9566 11.0454C66.9399 11.6402 66.9169 12.2405 66.8884 12.8464C66.8662 13.4467 66.8551 14.0077 66.8551 14.5295C66.8551 14.7876 66.8579 15.0344 66.8635 15.27C66.8746 15.5056 66.8947 15.7132 66.9225 15.8927C66.9281 15.9489 66.9253 15.9881 66.9142 16.0105C66.9086 16.0331 66.8947 16.0443 66.8718 16.0443C66.8488 16.0443 66.8238 16.0386 66.7953 16.0275C66.7669 16.0162 66.7419 16.005 66.7189 15.9937C66.6967 15.9826 66.6911 15.9966 66.7022 16.0359C66.7133 16.0751 66.7189 16.1144 66.7189 16.1537C66.7245 16.1986 66.7162 16.2294 66.6939 16.2462C66.6766 16.2687 66.6258 16.2547 66.5411 16.2042C66.4959 16.1649 66.439 16.134 66.3716 16.1115C66.3091 16.0947 66.2868 16.1088 66.3035 16.1537C66.309 16.1705 66.2924 16.1789 66.2528 16.1789C66.2131 16.1845 66.1653 16.1789 66.1085 16.1621C66.0576 16.1453 66.0068 16.1144 65.9559 16.0695C65.9107 16.0246 65.8796 15.9601 65.8626 15.8759C65.8343 15.702 65.806 15.5169 65.7778 15.3205C65.7552 15.1185 65.7354 14.8998 65.7184 14.6641C65.7015 14.4229 65.6873 14.1592 65.676 13.8731C65.6647 13.5813 65.659 13.2531 65.659 12.8884C65.659 12.6136 65.659 12.3162 65.659 11.9964C65.6647 11.671 65.676 11.3147 65.693 10.9276C65.7156 10.2263 65.7439 9.53344 65.7778 8.84905C65.8117 8.16452 65.8484 7.539 65.888 6.97236C65.9276 6.40009 65.97 5.90917 66.0152 5.49966C66.0662 5.09009 66.1198 4.80957 66.1764 4.65811C66.1875 4.602 66.2104 4.56835 66.2444 4.55712C66.284 4.54588 66.3542 4.52623 66.4564 4.49817C66.5522 4.47012 66.6515 4.44212 66.753 4.41407C66.8606 4.38601 66.9426 4.38035 66.9989 4.39718C67.0218 4.40842 67.0524 4.40842 67.092 4.39718C67.1316 4.38601 67.1684 4.38035 67.2024 4.38035C67.2421 4.38035 67.2733 4.39159 67.2955 4.41407C67.3241 4.43647 67.3324 4.48135 67.3213 4.5487ZM79.8595 12.4088C79.8595 12.9978 79.7716 13.5281 79.5959 13.9993C79.4264 14.4706 79.1923 14.8717 78.892 15.2027C78.5981 15.5337 78.2564 15.789 77.8662 15.9685C77.4759 16.148 77.0639 16.2378 76.628 16.2378C76.4473 16.2378 76.249 16.2154 76.0338 16.1705C75.8194 16.1312 75.6049 16.0639 75.3898 15.9685C75.1753 15.8732 74.9658 15.7469 74.7619 15.5898C74.5587 15.4327 74.378 15.2392 74.2191 15.0091C74.0609 14.7792 73.9336 14.5098 73.838 14.2012C73.7473 13.8927 73.7051 13.5365 73.7107 13.1325C73.7107 12.6724 73.767 12.2545 73.8802 11.8786C73.9934 11.4971 74.1375 11.1577 74.3126 10.8603C74.494 10.5573 74.6972 10.2965 74.9229 10.0777C75.1493 9.85887 75.3757 9.67652 75.6021 9.53064C75.8278 9.37916 76.0458 9.26695 76.2546 9.19408C76.4641 9.12114 76.6448 9.079 76.7974 9.0678C76.8769 9.0622 76.9106 9.0706 76.8994 9.09307C76.893 9.11547 76.8741 9.14074 76.8396 9.16881C76.8059 9.19681 76.7749 9.22488 76.7468 9.25295C76.7236 9.28102 76.7355 9.29782 76.7805 9.30342C76.8206 9.31469 76.8509 9.32589 76.8741 9.33716C76.9022 9.34829 76.9303 9.36236 76.9584 9.37916L77.0266 9.30342C77.066 9.27542 77.1033 9.26135 77.1363 9.26135C77.1764 9.26135 77.2102 9.26695 77.2383 9.27822C77.2671 9.28382 77.2896 9.28662 77.3065 9.28662C77.3234 9.28662 77.3346 9.26975 77.3402 9.23615C77.3522 9.17441 77.3712 9.14074 77.4 9.13514C77.4338 9.12387 77.5069 9.11834 77.6201 9.11834C77.6883 9.11834 77.7895 9.13794 77.9259 9.17721C78.0666 9.21648 78.2198 9.28382 78.3837 9.37916C78.5531 9.47457 78.7226 9.60358 78.892 9.76626C79.0678 9.92341 79.2253 10.1254 79.3673 10.3722C79.5136 10.6135 79.6324 10.9024 79.7238 11.2391C79.8138 11.5756 79.8595 11.9655 79.8595 12.4088ZM76.7974 9.94301C76.5991 10.0609 76.4051 10.2207 76.2124 10.4227C76.0198 10.6247 75.8447 10.8576 75.6865 11.1212C75.5339 11.3849 75.4095 11.6794 75.3138 12.0048C75.2175 12.3302 75.169 12.6724 75.169 13.0315C75.169 13.4186 75.2027 13.7693 75.2709 14.0834C75.3448 14.3977 75.4488 14.667 75.5852 14.8913C75.7209 15.1101 75.8848 15.2813 76.0767 15.4047C76.2743 15.5225 76.4979 15.5814 76.7468 15.5814C76.9669 15.5814 77.1848 15.5197 77.4 15.3962C77.6201 15.2729 77.8155 15.0877 77.985 14.8408C78.1545 14.594 78.2902 14.2883 78.3921 13.9236C78.4997 13.5589 78.5531 13.1353 78.5531 12.6528C78.5531 12.1647 78.4877 11.7552 78.3577 11.4241C78.2283 11.0932 78.0806 10.8266 77.9168 10.6247C77.7593 10.417 77.606 10.2712 77.4591 10.1871C77.3121 10.0974 77.2214 10.0524 77.1877 10.0524C77.1089 10.0524 77.0463 10.0524 77.0013 10.0524C76.9613 10.0524 76.893 10.0159 76.7974 9.94301ZM86.0618 9.90941C86.0562 10.0721 86.0393 10.2348 86.0112 10.3975C85.988 10.5545 85.9542 10.7061 85.9092 10.8519C85.8635 10.9922 85.8073 11.1184 85.7398 11.2307C85.6779 11.3428 85.6069 11.4325 85.5274 11.4999C85.4592 11.556 85.4058 11.5841 85.3664 11.5841C85.327 11.5841 85.2926 11.5728 85.2652 11.5503C85.242 11.5279 85.2223 11.5027 85.2054 11.4747C85.1885 11.4466 85.1653 11.4298 85.1379 11.4241C85.1147 11.4185 85.0837 11.4213 85.0437 11.4325C85.0099 11.4382 84.9741 11.4382 84.934 11.4325C84.9002 11.4269 84.8665 11.4073 84.832 11.3737C84.8039 11.3344 84.7842 11.2671 84.773 11.1717C84.761 11.0651 84.7638 10.9276 84.7814 10.7593C84.8039 10.5854 84.8152 10.417 84.8152 10.2544C84.8152 10.1086 84.7983 9.98795 84.7638 9.89254C84.7364 9.7916 84.6823 9.74106 84.6028 9.74106C84.5641 9.74106 84.4931 9.77193 84.3912 9.8336C84.2948 9.88974 84.1873 10.0131 84.0684 10.2039C83.9503 10.3946 83.8315 10.6723 83.7127 11.037C83.5938 11.3961 83.4975 11.8758 83.4244 12.4761C83.4244 13.2503 83.43 13.8731 83.4412 14.3444C83.4525 14.8156 83.4588 15.1831 83.4588 15.4468C83.4588 15.6712 83.4525 15.8311 83.4412 15.9265C83.43 16.0218 83.4019 16.0835 83.3562 16.1115C83.328 16.1284 83.2718 16.148 83.1867 16.1705C83.108 16.1986 83.0201 16.2238 82.9237 16.2462C82.833 16.2687 82.7459 16.2883 82.6608 16.3052C82.5764 16.322 82.523 16.3276 82.4998 16.322C82.4829 16.3164 82.452 16.2968 82.407 16.2631C82.362 16.235 82.3134 16.1986 82.2621 16.1537C82.2171 16.1088 82.1749 16.0611 82.1348 16.0105C82.0955 15.9657 82.073 15.9265 82.068 15.8927C82.0561 15.8367 82.0505 15.7104 82.0505 15.5141C82.0561 15.3121 82.0589 15.0709 82.0589 14.7904C82.0652 14.5098 82.0709 14.204 82.0758 13.8731C82.0814 13.5365 82.0842 13.2026 82.0842 12.8716C82.0842 12.6584 82.0898 12.4228 82.1011 12.1647C82.1187 11.901 82.1348 11.6346 82.1524 11.3653C82.1749 11.0959 82.1974 10.8323 82.2199 10.5742C82.2431 10.3161 82.2621 10.0861 82.2797 9.88407C82.3022 9.67652 82.3191 9.50544 82.3303 9.37076C82.3472 9.23055 82.3591 9.14634 82.3641 9.11834C82.3697 9.07347 82.3894 9.0566 82.4231 9.0678C82.4632 9.079 82.5026 9.09867 82.542 9.12674C82.5877 9.15481 82.627 9.18001 82.6608 9.20248C82.6952 9.22488 82.717 9.22488 82.729 9.20248C82.7402 9.15194 82.7824 9.14634 82.8562 9.18561C82.9301 9.21928 82.9976 9.25855 83.0602 9.30342C83.082 9.33149 83.108 9.35676 83.1361 9.37916C83.1698 9.39603 83.2008 9.42123 83.2296 9.45497C83.2577 9.48304 83.2802 9.52224 83.2971 9.57278C83.3196 9.62325 83.3309 9.69059 83.3309 9.77466C83.3309 9.85327 83.3372 9.97108 83.3484 10.1282C83.359 10.2852 83.373 10.4705 83.3906 10.6836C83.4525 10.4816 83.5263 10.2684 83.6107 10.044C83.7014 9.8196 83.809 9.61485 83.9334 9.4297C84.0572 9.23895 84.2048 9.08187 84.3743 8.95846C84.5438 8.83498 84.7477 8.77324 84.9846 8.77324C85.1147 8.77324 85.2448 8.79851 85.3748 8.84905C85.5049 8.89952 85.6209 8.97526 85.7229 9.07627C85.8298 9.17161 85.9155 9.28942 85.9767 9.4297C86.0393 9.56991 86.0674 9.72979 86.0618 9.90941ZM33.8768 31.3473C34.2726 31.3025 34.6826 31.2633 35.1066 31.2295C35.5363 31.1959 35.9377 31.179 36.3109 31.179C36.4239 31.1734 36.5539 31.1679 36.7009 31.1623C36.8253 31.1566 36.9695 31.1539 37.1334 31.1539C37.3031 31.1482 37.4868 31.1454 37.6847 31.1454C37.8939 31.1454 38.1144 31.1482 38.3462 31.1539C38.5836 31.1594 38.8211 31.1678 39.0585 31.179C39.0812 30.8424 39.1037 30.4945 39.1264 30.1355C39.1491 29.7765 39.1688 29.4314 39.1857 29.1005C39.2084 28.7638 39.2254 28.4553 39.2367 28.1747C39.2536 27.8886 39.2677 27.6501 39.279 27.4594V26.8871C39.279 26.7301 39.279 26.5757 39.279 26.4243C39.279 26.2672 39.2847 26.1409 39.296 26.0456C39.3356 25.8604 39.4175 25.7679 39.5419 25.7679C39.6155 25.7679 39.672 25.7763 39.7116 25.7931C39.7512 25.81 39.8218 25.8408 39.9236 25.8857C39.9745 25.9025 40.0282 25.9249 40.0847 25.953C40.1469 25.9811 40.2063 26.0119 40.2628 26.0456C40.3194 26.0737 40.3703 26.1045 40.4155 26.1382C40.4607 26.1662 40.4947 26.1915 40.5173 26.2139C40.5399 26.2363 40.5681 26.2756 40.602 26.3317C40.636 26.3822 40.6699 26.4384 40.7038 26.5C40.7377 26.5617 40.766 26.6263 40.7886 26.6936C40.8112 26.7553 40.8197 26.8086 40.8141 26.8535C40.8085 26.8984 40.7943 27.0639 40.7717 27.35C40.749 27.6305 40.7208 28.0036 40.6869 28.4692C40.6529 28.9292 40.6162 29.4651 40.5766 30.0766C40.537 30.6881 40.5003 31.3417 40.4663 32.0375C40.4155 33.1595 40.39 34.0908 40.39 34.8314C40.39 35.3868 40.3985 35.8356 40.4155 36.1779C40.4381 36.5201 40.4663 36.7613 40.5003 36.9016C40.5512 37.1372 40.588 37.3055 40.6105 37.4065C40.6332 37.5075 40.6303 37.5748 40.602 37.6086C40.5907 37.6197 40.5738 37.631 40.5512 37.6422C40.4947 37.6646 40.4014 37.687 40.2713 37.7094C40.2487 37.7712 40.2261 37.8217 40.2035 37.861C40.1808 37.8946 40.1582 37.9227 40.1356 37.9451C40.113 37.9676 40.0904 37.9872 40.0678 38.004C40.0113 38.0208 39.9575 38.0377 39.9066 38.0545C39.8557 38.0713 39.8161 38.0657 39.7879 38.0376C39.7709 38.0321 39.7568 38.0237 39.7455 38.0125C39.7229 38.0012 39.7031 37.9704 39.6861 37.9198C39.6296 37.9423 39.5787 37.9423 39.5335 37.9198C39.5108 37.9086 39.4911 37.8974 39.4741 37.8862C39.4289 37.8469 39.3639 37.7768 39.279 37.6758C39.1943 37.5748 39.1378 37.4374 39.1094 37.2635C39.0981 37.1793 39.0784 37.0896 39.0501 36.9942C39.0274 36.8932 39.0021 36.7922 38.9738 36.6912C38.9512 36.5847 38.9257 36.4836 38.8974 36.3882C38.8749 36.2873 38.8579 36.1947 38.8466 36.1105C38.8296 36.032 38.8211 35.8665 38.8211 35.614C38.8268 35.3616 38.8352 35.067 38.8466 34.7304C38.8635 34.3938 38.8833 34.0347 38.9059 33.6533C38.9285 33.2717 38.9512 32.9126 38.9738 32.576C38.9738 32.5312 38.9738 32.4835 38.9738 32.433C38.9738 32.3825 38.9794 32.3263 38.9907 32.2647C38.7363 32.2534 38.4847 32.2478 38.2359 32.2478C37.9928 32.2478 37.7582 32.2478 37.532 32.2478C37.2494 32.2478 36.9921 32.2507 36.7603 32.2562C36.5285 32.2562 36.325 32.2591 36.1497 32.2647C35.9462 32.2702 35.7624 32.2759 35.5984 32.2815C34.9991 32.2815 34.4197 32.2983 33.8599 32.332C33.8543 32.4161 33.8486 32.489 33.843 32.5508C33.843 32.6125 33.843 32.6658 33.843 32.7107V32.8369C33.8316 33.3867 33.8204 33.9141 33.8091 34.419C33.7977 34.9239 33.7892 35.3755 33.7836 35.7739C33.7779 36.1722 33.7723 36.5032 33.7667 36.7669C33.7667 37.0306 33.7694 37.1961 33.7751 37.2635C33.7751 37.3196 33.7723 37.3785 33.7667 37.4402C33.761 37.4963 33.7496 37.5636 33.7327 37.6422C33.7215 37.7151 33.7016 37.7964 33.6734 37.8862C33.6168 37.8918 33.5631 37.9114 33.5122 37.9451C33.4896 37.962 33.4669 37.976 33.4444 37.9872C33.3934 38.0208 33.3454 38.0573 33.3002 38.0966C33.2606 38.1415 33.2239 38.1499 33.19 38.1219C33.1448 38.0882 33.0881 38.0657 33.0203 38.0545C32.9581 38.0433 32.879 38.0376 32.7829 38.0376C32.7376 38.0376 32.6896 38.0236 32.6387 37.9956C32.5878 37.9676 32.5398 37.9367 32.4945 37.903C32.4493 37.8638 32.4097 37.8217 32.3758 37.7768C32.3419 37.732 32.3221 37.6926 32.3165 37.659C32.3052 37.6253 32.2909 37.5776 32.274 37.5159C32.2571 37.4486 32.2401 37.3813 32.2232 37.3139C32.2118 37.241 32.2005 37.1737 32.1892 37.112C32.178 37.0446 32.1694 36.997 32.1638 36.9689C32.1581 36.9408 32.1581 36.8006 32.1638 36.5482C32.1694 36.2957 32.1807 35.9647 32.1977 35.5551C32.2147 35.1399 32.2345 34.6659 32.2571 34.1329C32.2797 33.5943 32.3051 33.0277 32.3334 32.433C32.1185 32.4554 31.9376 32.475 31.7906 32.4919C31.6436 32.5031 31.5532 32.5143 31.5193 32.5255C31.457 32.5368 31.4061 32.5508 31.3666 32.5676C31.3327 32.5788 31.3016 32.59 31.2733 32.6013C31.2507 32.6125 31.2281 32.6209 31.2055 32.6265C31.1829 32.6265 31.1602 32.6209 31.1376 32.6097C31.1036 32.6097 31.0698 32.59 31.0359 32.5508C31.0076 32.5059 30.9878 32.4554 30.9765 32.3993C30.9143 32.388 30.8719 32.3684 30.8493 32.3404C30.8323 32.3067 30.8182 32.2815 30.8069 32.2647C30.8069 32.2197 30.8267 32.1889 30.8663 32.1721C30.9115 32.1497 30.9793 32.0935 31.0698 32.0038C31.1093 31.9645 31.1659 31.928 31.2394 31.8944C31.3185 31.8551 31.4005 31.8186 31.4854 31.785C31.5701 31.7513 31.6521 31.7233 31.7313 31.7008C31.8161 31.6728 31.8895 31.6532 31.9518 31.6419L32.3673 31.5745C32.4012 31.0248 32.4352 30.5226 32.4691 30.0682C32.503 29.6138 32.5341 29.1929 32.5624 28.8058C32.5906 28.4188 32.6133 28.0596 32.6302 27.7287C32.6528 27.392 32.6641 27.0667 32.6641 26.7525C32.6641 26.6627 32.6614 26.5786 32.6557 26.5C32.65 26.4214 32.6471 26.3374 32.6471 26.2476C32.6471 26.1802 32.6641 26.1241 32.6981 26.0792C32.7376 26.0288 32.7857 25.9979 32.8423 25.9867H32.944C33.0062 25.9867 33.1221 25.9951 33.2917 26.0119C33.3143 25.9559 33.3397 25.9194 33.368 25.9025C33.3849 25.8913 33.3991 25.8857 33.4105 25.8857C33.4557 25.8857 33.4924 25.8969 33.5207 25.9194C33.5546 25.9362 33.5772 25.953 33.5885 25.9699C33.5885 25.9811 33.5914 25.9923 33.597 26.0035C33.6027 26.0203 33.6112 26.0456 33.6225 26.0792C33.6677 26.0905 33.7016 26.1017 33.7242 26.1129C33.7468 26.1241 33.7667 26.1353 33.7836 26.1466C33.8006 26.1634 33.8147 26.1747 33.826 26.1802L33.8514 26.2307C33.8683 26.2644 33.8854 26.329 33.9024 26.4243C33.9419 26.5084 33.9673 26.5673 33.9786 26.601C33.9843 26.6234 33.9871 26.6375 33.9871 26.6431C33.9871 26.6543 33.99 26.6683 33.9956 26.6851C33.9956 26.6964 33.9956 26.7076 33.9956 26.7189C34.0013 26.7301 34.0041 26.7413 34.0041 26.7525L33.8768 31.3473ZM49.0437 34.4695C49.0437 35.0586 48.9561 35.5888 48.7808 36.0601C48.6112 36.5313 48.3765 36.9324 48.0769 37.2635C47.7829 37.5945 47.4409 37.8498 47.0507 38.0292C46.6606 38.2088 46.2479 38.2985 45.8125 38.2985C45.6316 38.2985 45.4338 38.2761 45.2189 38.2313C45.0041 38.1919 44.7892 38.1247 44.5744 38.0292C44.3596 37.9339 44.1503 37.8077 43.9469 37.6505C43.7433 37.4935 43.5624 37.2999 43.404 37.0699C43.2458 36.8399 43.1186 36.5706 43.0225 36.262C42.932 35.9534 42.8896 35.5972 42.8952 35.1932C42.8952 34.7332 42.9518 34.3152 43.0648 33.9394C43.1779 33.5579 43.3221 33.2184 43.4974 32.921C43.6783 32.6181 43.8818 32.3572 44.1079 32.1384C44.3341 31.9196 44.5603 31.7372 44.7865 31.5914C45.0126 31.4399 45.2302 31.3277 45.4394 31.2548C45.6486 31.1818 45.8295 31.1398 45.9822 31.1285C46.0614 31.1229 46.0953 31.1314 46.0839 31.1539C46.0783 31.1763 46.0585 31.2015 46.0246 31.2295C45.9907 31.2576 45.9596 31.2857 45.9313 31.3137C45.9087 31.3417 45.92 31.3586 45.9652 31.3641C46.0048 31.3754 46.0359 31.3867 46.0585 31.3979C46.0868 31.4091 46.115 31.4231 46.1434 31.4399L46.2112 31.3641C46.2507 31.3362 46.2875 31.3221 46.3214 31.3221C46.361 31.3221 46.3949 31.3277 46.4232 31.3389C46.4515 31.3446 46.4741 31.3473 46.491 31.3473C46.508 31.3473 46.5193 31.3305 46.5249 31.2969C46.5363 31.2352 46.5561 31.2014 46.5844 31.1958C46.6182 31.1846 46.6917 31.179 46.8048 31.179C46.8726 31.179 46.9744 31.1987 47.1101 31.2379C47.2514 31.2773 47.4041 31.3446 47.5681 31.4399C47.7377 31.5353 47.9074 31.6643 48.0769 31.827C48.2522 31.9841 48.4104 32.1861 48.5518 32.433C48.6989 32.6743 48.8175 32.9631 48.908 33.2998C48.9985 33.6363 49.0437 34.0263 49.0437 34.4695ZM45.9822 32.0038C45.7843 32.1216 45.5893 32.2815 45.3971 32.4835C45.2048 32.6854 45.0295 32.9183 44.8712 33.182C44.7185 33.4456 44.5942 33.7401 44.498 34.0656C44.402 34.3909 44.3539 34.7332 44.3539 35.0923C44.3539 35.4794 44.3878 35.83 44.4556 36.1441C44.5292 36.4584 44.6337 36.7277 44.7694 36.9521C44.9051 37.1709 45.0691 37.342 45.2614 37.4654C45.4592 37.5832 45.6825 37.6422 45.9313 37.6422C46.1518 37.6422 46.3695 37.5805 46.5844 37.457C46.8048 37.3336 46.9999 37.1484 47.1694 36.9016C47.3391 36.6547 47.4748 36.349 47.5765 35.9843C47.684 35.6196 47.7377 35.1961 47.7377 34.7136C47.7377 34.2255 47.6727 33.816 47.5426 33.4849C47.4126 33.1539 47.2656 32.8874 47.1016 32.6854C46.9433 32.4778 46.7906 32.332 46.6437 32.2478C46.4967 32.1581 46.4062 32.1132 46.3723 32.1132C46.2932 32.1132 46.231 32.1132 46.1857 32.1132C46.1462 32.1132 46.0783 32.0767 45.9822 32.0038ZM53.491 28.1242C53.491 28.1579 53.4853 28.2477 53.4741 28.3935C53.4627 28.5337 53.4458 28.7217 53.4232 28.9573C53.4061 29.1929 53.3835 29.4679 53.3553 29.7821C53.327 30.0906 53.2988 30.4245 53.2705 30.7836C53.6267 30.7387 53.9631 30.7049 54.2796 30.6825C54.6019 30.6545 54.8734 30.6404 55.0939 30.6404C55.1673 30.6404 55.2324 30.6545 55.2889 30.6825C55.3454 30.7106 55.3906 30.7443 55.4246 30.7836C55.4641 30.8172 55.4953 30.8565 55.5178 30.9014C55.5405 30.9406 55.5546 30.9743 55.5603 31.0023C55.5603 31.0304 55.5631 31.0584 55.5687 31.0864C55.5744 31.1089 55.5772 31.1342 55.5772 31.1623C55.5772 31.2744 55.5263 31.3867 55.4246 31.4989C55.3284 31.611 55.1815 31.6812 54.9836 31.7092L53.1772 31.9028C53.1489 32.3067 53.1235 32.7218 53.1008 33.1482C53.0783 33.5747 53.0556 34.001 53.0331 34.4274C53.016 34.8482 53.0019 35.2634 52.9907 35.6729C52.9793 36.0825 52.9737 36.4696 52.9737 36.8343C52.9737 37.0699 52.9793 37.2606 52.9907 37.4065C53.0019 37.5524 53.0076 37.6477 53.0076 37.6926C53.0076 37.788 52.9878 37.8834 52.9482 37.9788C52.9143 38.0686 52.8719 38.1499 52.821 38.2229C52.7758 38.3013 52.7249 38.3631 52.6684 38.4079C52.6174 38.4585 52.575 38.4837 52.5412 38.4837C52.3376 38.4837 52.1765 38.4192 52.0578 38.2901C51.939 38.1667 51.8486 37.9985 51.7864 37.7852C51.7298 37.5721 51.6931 37.328 51.6762 37.0531C51.6591 36.7781 51.6507 36.492 51.6507 36.1947C51.6507 35.4934 51.6705 34.7921 51.7101 34.0908C51.7496 33.3839 51.8061 32.7051 51.8797 32.0543L50.8196 32.1805C50.8026 32.1805 50.7856 32.1833 50.7686 32.1889C50.7517 32.1945 50.7319 32.1973 50.7094 32.1973C50.6019 32.1973 50.5171 32.1721 50.4549 32.1216C50.3871 32.0711 50.3362 32.0122 50.3022 31.9449C50.2683 31.8776 50.2485 31.8102 50.2429 31.7429C50.2316 31.67 50.226 31.6139 50.226 31.5745C50.226 31.496 50.2372 31.4231 50.2599 31.3557C50.2824 31.2885 50.3249 31.2463 50.3871 31.2295C50.5057 31.1847 50.7121 31.137 51.0062 31.0864C51.3058 31.0304 51.6421 30.9743 52.0153 30.9182C52.0776 30.4637 52.1397 30.0485 52.2019 29.6726C52.2698 29.2911 52.3347 28.963 52.397 28.688C52.4592 28.4075 52.5157 28.1915 52.5666 28.0401C52.6231 27.883 52.6712 27.8044 52.7108 27.8044C52.7221 27.8044 52.7361 27.8072 52.7532 27.8129C52.7702 27.8184 52.7842 27.8213 52.7955 27.8213C52.8294 27.8213 52.8549 27.8044 52.8719 27.7708C52.8945 27.7316 52.9341 27.7119 52.9907 27.7119C53.0415 27.7119 53.0952 27.7287 53.1517 27.7623C53.2139 27.7904 53.2676 27.8269 53.3128 27.8718C53.3638 27.9166 53.4061 27.9643 53.4401 28.0148C53.4741 28.0596 53.491 28.0961 53.491 28.1242ZM61.763 34.9492C61.763 35.0109 61.7659 35.0839 61.7715 35.168C61.7772 35.2521 61.78 35.3475 61.78 35.4542C61.78 35.5888 61.7602 35.757 61.7207 35.9591C61.6811 36.1554 61.616 36.363 61.5255 36.5818C61.4407 36.8006 61.3249 37.0194 61.1779 37.2382C61.0308 37.457 60.8499 37.6534 60.6351 37.8273C60.4202 38.0012 60.1658 38.1415 59.8718 38.2481C59.5835 38.3603 59.2528 38.4163 58.8796 38.4163C58.5461 38.4163 58.204 38.3518 57.8535 38.2229C57.5085 38.0994 57.1919 37.9058 56.9036 37.6422C56.6209 37.3729 56.3863 37.0334 56.1997 36.6239C56.0188 36.2087 55.9283 35.715 55.9283 35.1427C55.9283 34.7837 55.9736 34.4303 56.064 34.0824C56.1601 33.7346 56.2845 33.4064 56.4372 33.0978C56.5955 32.7892 56.7792 32.5059 56.9884 32.2478C57.2032 31.9841 57.4265 31.7598 57.6584 31.5745C57.8958 31.3838 58.1389 31.2352 58.3877 31.1285C58.6421 31.022 58.8881 30.9686 59.1255 30.9686C59.5382 30.9686 59.8775 31.0332 60.1433 31.1623C60.4146 31.2912 60.6294 31.4511 60.7878 31.6419C60.9461 31.8327 61.0564 32.0375 61.1185 32.2562C61.1863 32.4694 61.2203 32.663 61.2203 32.8369C61.2203 33.0052 61.1779 33.1988 61.093 33.4176C61.0139 33.6307 60.8811 33.8355 60.6945 34.0319C60.5079 34.2226 60.2648 34.3854 59.9651 34.52C59.6655 34.6491 59.298 34.7136 58.8627 34.7136C58.6308 34.7136 58.4216 34.6827 58.2351 34.621C58.0541 34.5537 57.893 34.4723 57.7517 34.377C57.6103 34.276 57.4888 34.1694 57.387 34.0572C57.2908 33.9394 57.2089 33.8299 57.1411 33.7289C57.0393 34.0768 56.9884 34.4835 56.9884 34.9492C56.9884 35.269 57.0337 35.5579 57.1241 35.816C57.2202 36.0685 57.3502 36.2844 57.5142 36.464C57.6782 36.6435 57.8732 36.7809 58.0994 36.8763C58.3256 36.9718 58.5743 37.0194 58.8457 37.0194C59.1849 37.0194 59.4817 36.9633 59.7361 36.8511C59.9906 36.7333 60.2111 36.5874 60.3977 36.4135C60.5899 36.2396 60.7539 36.0517 60.8895 35.8497C61.0308 35.6421 61.1524 35.4542 61.2542 35.2858C61.356 35.1119 61.4436 34.9688 61.5171 34.8566C61.5962 34.7444 61.6726 34.6912 61.746 34.6967C61.78 34.6967 61.797 34.7248 61.797 34.7809C61.797 34.809 61.7941 34.837 61.7884 34.865C61.7828 34.8931 61.7744 34.9211 61.763 34.9492ZM59.2104 31.8186C59.1086 31.8186 58.9757 31.8411 58.8118 31.886C58.6534 31.9252 58.4839 31.9981 58.3029 32.1048C58.1277 32.2113 57.9524 32.3572 57.7771 32.5424C57.6018 32.7219 57.4492 32.9519 57.3192 33.2324C57.3983 33.1932 57.4661 33.1595 57.5227 33.1314C57.5849 33.1034 57.6273 33.0893 57.6499 33.0893C57.6612 33.0893 57.6782 33.1006 57.7008 33.123C57.8308 33.3418 57.9919 33.4989 58.1842 33.5943C58.3821 33.6841 58.6026 33.7289 58.8457 33.7289C59.0379 33.7289 59.2019 33.6981 59.3376 33.6363C59.4789 33.5691 59.5948 33.4849 59.6853 33.3839C59.7757 33.2829 59.8408 33.1736 59.8803 33.0557C59.9199 32.9323 59.9397 32.8117 59.9397 32.6939C59.9397 32.4414 59.8747 32.2337 59.7446 32.0711C59.6146 31.9028 59.4365 31.8186 59.2104 31.8186ZM65.4555 26.7861C65.4555 26.8647 65.4498 27.0189 65.4385 27.249C65.4273 27.4791 65.4131 27.7567 65.3962 28.0821C65.3792 28.4019 65.3594 28.7554 65.3368 29.1425C65.3198 29.524 65.3001 29.9083 65.2774 30.2954C65.2548 30.6769 65.235 31.0472 65.218 31.4063C65.2011 31.7653 65.1898 32.0795 65.1841 32.3488C65.1728 32.5115 65.1643 32.691 65.1587 32.8874C65.1587 33.0837 65.1587 33.2941 65.1587 33.5185C65.1587 33.8159 65.1587 34.1272 65.1587 34.4527C65.1643 34.7725 65.17 35.0895 65.1756 35.4036C65.1813 35.7178 65.187 36.0207 65.1926 36.3125C65.2039 36.5986 65.2124 36.8567 65.218 37.0867C65.2237 37.3168 65.2266 37.5103 65.2266 37.6674C65.2322 37.8188 65.235 37.9142 65.235 37.9535C65.235 38.0321 65.2209 38.091 65.1926 38.1303C65.17 38.1751 65.1389 38.2032 65.0994 38.2145C65.0654 38.2313 65.0287 38.234 64.9891 38.2229C64.9495 38.2172 64.9156 38.206 64.8873 38.1891C64.8534 38.1723 64.8252 38.1527 64.8025 38.1303C64.7855 38.1078 64.7714 38.091 64.7601 38.0798C64.7488 38.0686 64.7375 38.0657 64.7262 38.0713C64.7205 38.077 64.7149 38.0994 64.7092 38.1387C64.6922 38.2845 64.6583 38.394 64.6074 38.4669C64.5622 38.5398 64.5113 38.5875 64.4548 38.61C64.4039 38.638 64.3558 38.6464 64.3106 38.6352C64.2654 38.624 64.2371 38.6044 64.2258 38.5763C64.2145 38.5482 64.1948 38.5314 64.1665 38.5258C64.1438 38.5202 64.1184 38.5146 64.0901 38.509C64.0619 38.509 64.0336 38.5006 64.0053 38.4837C63.9827 38.4725 63.9686 38.4444 63.9629 38.3995C63.9176 38.2088 63.8894 37.9676 63.8781 37.6758C63.8668 37.3785 63.8611 37.0447 63.8611 36.6744C63.8611 36.3546 63.864 36.0095 63.8696 35.6392C63.8753 35.269 63.8781 34.8903 63.8781 34.5032C63.8781 34.2787 63.8781 34.0572 63.8781 33.8383C63.8781 33.6139 63.8724 33.3867 63.8611 33.1567V32.6265C63.8611 32.1721 63.8724 31.7176 63.8951 31.2633C63.9177 30.8031 63.946 30.3627 63.9799 29.942C64.0138 29.5212 64.0505 29.1257 64.0901 28.7554C64.1297 28.3851 64.1636 28.0569 64.1919 27.7708C64.2202 27.4847 64.2428 27.2518 64.2598 27.0723C64.2767 26.8927 64.2824 26.7805 64.2767 26.7357C64.271 26.6964 64.2739 26.6683 64.2852 26.6515C64.3021 26.6347 64.3219 26.6262 64.3445 26.6262C64.3728 26.6206 64.401 26.6179 64.4294 26.6179C64.4576 26.6122 64.483 26.6038 64.5057 26.5926C64.5453 26.5702 64.5763 26.5646 64.5989 26.5757C64.6272 26.5814 64.6499 26.5926 64.6668 26.6094C64.6838 26.6262 64.6979 26.6459 64.7092 26.6683C64.7262 26.6851 64.7488 26.6936 64.7771 26.6936C64.811 26.688 64.8364 26.6796 64.8534 26.6683C64.876 26.6515 64.893 26.6375 64.9043 26.6262C64.9212 26.6094 64.9354 26.5954 64.9467 26.5842C64.9636 26.573 64.9834 26.5702 65.0061 26.5757C65.0513 26.587 65.0937 26.5954 65.1333 26.601C65.1785 26.601 65.2011 26.5927 65.2011 26.5757C65.2124 26.5308 65.2293 26.5113 65.252 26.5168C65.2745 26.5168 65.3029 26.5308 65.3368 26.5589C65.3707 26.587 65.399 26.6179 65.4216 26.6515C65.4442 26.6796 65.4555 26.7245 65.4555 26.7861Z" fill="#212135"/>
<path d="M13.3804 17.6501H10.232V14.4812H13.3804V17.6501ZM13.3804 9.7279H10.232V12.8968H13.3804V9.7279ZM18.1029 23.9879H14.9546V27.1568H18.1029V23.9879ZM18.1029 9.7279H14.9546V12.8968H18.1029V9.7279ZM18.1029 19.2346H14.9546V22.4035H18.1029V19.2346ZM18.1029 4.97459H14.9546V8.14345H18.1029V4.97459ZM18.1029 14.4812H14.9546V17.6501H18.1029V14.4812ZM13.3804 4.97459H10.232V8.14345H13.3804V4.97459ZM8.65786 14.4812H5.50956V17.6501H8.65786V14.4812ZM8.65786 23.9879H5.50956V27.1568H8.65786V23.9879ZM8.65786 19.2346H5.50956V22.4035H8.65786V19.2346ZM21.4086 3.39014V36.6635H23.6124V38.248H21.4086H15.7416H7.87085H2.20383H0V36.6635H2.20383V3.39014H0V1.80569H2.20383H4.40765V0.221245H19.2047V1.80569H21.4086H23.6124V3.39014H21.4086ZM14.1674 32.7024C14.1674 31.3921 13.108 30.3257 11.8062 30.3257C10.5044 30.3257 9.44501 31.3921 9.44501 32.7024V36.6635H14.1674V32.7024ZM19.8344 3.39014H3.77798V36.6635H7.87085V32.7024C7.87085 30.5175 9.63626 28.7413 11.8062 28.7413C13.9762 28.7413 15.7416 30.5175 15.7416 32.7024V36.6635H19.8344V3.39014ZM13.3804 23.9879H10.232V27.1568H13.3804V23.9879ZM13.3804 19.2346H10.232V22.4035H13.3804V19.2346ZM8.65786 9.7279H5.50956V12.8968H8.65786V9.7279ZM8.65786 4.97459H5.50956V8.14345H8.65786V4.97459Z" fill="#212135"/>
</svg>
